<svg width="273" height="99" viewBox="0 0 273 99" fill="none" xmlns="http://www.w3.org/2000/svg">
<path d="M1 33.4582L272 1V33.4582V65.347L1 33.4582Z" fill="#F44D8A"/>
<path d="M1 33.4582L272 1V65.347L1 33.4582ZM1 33.4582H272" stroke="#F44D8A"/>
<path d="M1 65.6316L272 33.1733V65.6316V97.5204L1 65.6316Z" fill="#F44D8A"/>
<path d="M1 65.6316L272 33.1733V97.5204L1 65.6316ZM1 65.6316H272" stroke="#F44D8A"/>
<path d="M157.107 53.156H148.985L147.683 57H142.134L150.008 35.238H156.146L164.02 57H158.409L157.107 53.156ZM155.743 49.064L153.046 41.097L150.38 49.064H155.743ZM175.096 44.104H172.244V57H166.943V44.104H165.021V39.702H166.943V39.206C166.943 37.0773 167.553 35.4653 168.772 34.37C169.991 33.254 171.779 32.696 174.135 32.696C174.528 32.696 174.817 32.7063 175.003 32.727V37.222C173.99 37.16 173.277 37.3047 172.864 37.656C172.451 38.0073 172.244 38.6377 172.244 39.547V39.702H175.096V44.104ZM186.267 44.104H183.415V57H178.114V44.104H176.192V39.702H178.114V39.206C178.114 37.0773 178.724 35.4653 179.943 34.37C181.162 33.254 182.95 32.696 185.306 32.696C185.699 32.696 185.988 32.7063 186.174 32.727V37.222C185.161 37.16 184.448 37.3047 184.035 37.656C183.622 38.0073 183.415 38.6377 183.415 39.547V39.702H186.267V44.104ZM191.424 37.904C190.494 37.904 189.729 37.6353 189.13 37.098C188.551 36.54 188.262 35.858 188.262 35.052C188.262 34.2253 188.551 33.5433 189.13 33.006C189.729 32.448 190.494 32.169 191.424 32.169C192.333 32.169 193.077 32.448 193.656 33.006C194.255 33.5433 194.555 34.2253 194.555 35.052C194.555 35.858 194.255 36.54 193.656 37.098C193.077 37.6353 192.333 37.904 191.424 37.904ZM194.059 39.702V57H188.758V39.702H194.059ZM203.202 34.06V57H197.901V34.06H203.202ZM209.709 37.904C208.779 37.904 208.014 37.6353 207.415 37.098C206.836 36.54 206.547 35.858 206.547 35.052C206.547 34.2253 206.836 33.5433 207.415 33.006C208.014 32.448 208.779 32.169 209.709 32.169C210.618 32.169 211.362 32.448 211.941 33.006C212.54 33.5433 212.84 34.2253 212.84 35.052C212.84 35.858 212.54 36.54 211.941 37.098C211.362 37.6353 210.618 37.904 209.709 37.904ZM212.344 39.702V57H207.043V39.702H212.344ZM215.132 48.32C215.132 46.5427 215.462 44.9823 216.124 43.639C216.806 42.2957 217.725 41.2623 218.883 40.539C220.04 39.8157 221.332 39.454 222.758 39.454C223.977 39.454 225.041 39.702 225.951 40.198C226.881 40.694 227.594 41.345 228.09 42.151V39.702H233.391V57H228.09V54.551C227.573 55.357 226.85 56.008 225.92 56.504C225.01 57 223.946 57.248 222.727 57.248C221.321 57.248 220.04 56.8863 218.883 56.163C217.725 55.419 216.806 54.3753 216.124 53.032C215.462 51.668 215.132 50.0973 215.132 48.32ZM228.09 48.351C228.09 47.0283 227.718 45.9847 226.974 45.22C226.25 44.4553 225.362 44.073 224.308 44.073C223.254 44.073 222.355 44.4553 221.611 45.22C220.887 45.964 220.526 46.9973 220.526 48.32C220.526 49.6427 220.887 50.6967 221.611 51.482C222.355 52.2467 223.254 52.629 224.308 52.629C225.362 52.629 226.25 52.2467 226.974 51.482C227.718 50.7173 228.09 49.6737 228.09 48.351ZM246.867 52.505V57H244.17C242.248 57 240.749 56.535 239.675 55.605C238.6 54.6543 238.063 53.1147 238.063 50.986V44.104H235.955V39.702H238.063V35.486H243.364V39.702H246.836V44.104H243.364V51.048C243.364 51.5647 243.488 51.9367 243.736 52.164C243.984 52.3913 244.397 52.505 244.976 52.505H246.867ZM266.125 48.072C266.125 48.568 266.094 49.0847 266.032 49.622H254.035C254.118 50.6967 254.459 51.5233 255.058 52.102C255.678 52.66 256.433 52.939 257.321 52.939C258.644 52.939 259.564 52.381 260.08 51.265H265.722C265.433 52.4017 264.906 53.4247 264.141 54.334C263.397 55.2433 262.457 55.9563 261.32 56.473C260.184 56.9897 258.913 57.248 257.507 57.248C255.813 57.248 254.304 56.8863 252.981 56.163C251.659 55.4397 250.625 54.4063 249.881 53.063C249.137 51.7197 248.765 50.149 248.765 48.351C248.765 46.553 249.127 44.9823 249.85 43.639C250.594 42.2957 251.628 41.2623 252.95 40.539C254.273 39.8157 255.792 39.454 257.507 39.454C259.181 39.454 260.669 39.8053 261.971 40.508C263.273 41.2107 264.286 42.213 265.009 43.515C265.753 44.817 266.125 46.336 266.125 48.072ZM260.7 46.677C260.7 45.7677 260.39 45.0443 259.77 44.507C259.15 43.9697 258.375 43.701 257.445 43.701C256.557 43.701 255.802 43.9593 255.182 44.476C254.583 44.9927 254.211 45.7263 254.066 46.677H260.7Z" fill="white"/>
</svg>
