<svg width="1392" height="3463" viewBox="0 0 1392 3463" fill="none" xmlns="http://www.w3.org/2000/svg">
<path d="M347.085 274H0.0849609C5.82329 266.793 37.5529 258.931 42.9536 259.586C48.3544 260.241 52.7425 256.965 54.7678 243.861C56.7931 230.758 65.2318 235.999 65.5694 233.378C65.9069 230.758 67.5947 222.895 74.0081 223.551C80.4215 224.206 79.7464 220.275 81.7717 211.102C92.2357 179.653 124.303 211.102 127.341 207.826C130.379 204.55 141.18 211.102 146.919 211.102C152.657 211.102 174.26 240.585 187.424 235.999C200.589 231.413 214.428 249.758 231.306 258.931C244.808 266.269 314.118 272.034 347.085 274Z" fill="#D7C9A5" fill-opacity="0.5"/>
<path d="M392 3069H45C50.7383 3061.79 82.4679 3053.93 87.8687 3054.59C93.2695 3055.24 97.6576 3051.97 99.6829 3038.86C101.708 3025.76 110.147 3031 110.484 3028.38C110.822 3025.76 112.51 3017.9 118.923 3018.55C125.337 3019.21 124.661 3015.27 126.687 3006.1C137.151 2974.65 169.218 3006.1 172.256 3002.83C175.294 2999.55 186.095 3006.1 191.834 3006.1C197.572 3006.1 219.175 3035.59 232.339 3031C245.504 3026.41 259.343 3044.76 276.221 3053.93C289.723 3061.27 359.033 3067.03 392 3069Z" fill="#D7C9A5" fill-opacity="0.5"/>
<path d="M924.085 174H1391.08C1383.36 167.916 1340.66 161.279 1333.39 161.832C1326.12 162.385 1320.22 159.62 1317.49 148.558C1314.77 137.497 1303.41 141.921 1302.95 139.709C1302.5 137.497 1300.23 130.86 1291.6 131.413C1282.97 131.966 1283.87 128.647 1281.15 120.904C1267.07 94.3564 1223.91 120.904 1219.82 118.139C1215.73 115.373 1201.2 120.904 1193.47 120.904C1185.75 120.904 1156.68 145.793 1138.96 141.921C1121.24 138.05 1102.62 153.536 1079.9 161.279C1061.73 167.474 968.453 172.341 924.085 174Z" fill="#D7C9A5" fill-opacity="0.4"/>
<path d="M893 3463H1360C1352.28 3456.92 1309.57 3450.28 1302.31 3450.83C1295.04 3451.39 1289.13 3448.62 1286.41 3437.56C1283.68 3426.5 1272.32 3430.92 1271.87 3428.71C1271.42 3426.5 1269.14 3419.86 1260.51 3420.41C1251.88 3420.97 1252.79 3417.65 1250.06 3409.9C1235.98 3383.36 1192.82 3409.9 1188.74 3407.14C1184.65 3404.37 1170.11 3409.9 1162.39 3409.9C1154.67 3409.9 1125.59 3434.79 1107.87 3430.92C1090.16 3427.05 1071.53 3442.54 1048.82 3450.28C1030.65 3456.47 937.368 3461.34 893 3463Z" fill="#D7C9A5" fill-opacity="0.4"/>
<path d="M474.085 674H136.085C141.674 670.35 172.581 666.367 177.842 666.699C183.102 667.031 187.377 665.372 189.35 658.735C191.322 652.098 199.542 654.753 199.871 653.425C200.2 652.098 201.844 648.116 208.091 648.448C214.338 648.78 213.68 646.788 215.653 642.143C225.846 626.214 257.081 642.143 260.04 640.483C262.999 638.824 273.521 642.143 279.11 642.143C284.7 642.143 305.743 657.076 318.566 654.753C331.388 652.43 344.869 661.722 361.309 666.367C374.46 670.084 441.973 673.004 474.085 674Z" fill="#D7C9A5" fill-opacity="0.2"/>
<path d="M1099.08 498H1376.08C1371.5 493.788 1346.18 489.193 1341.86 489.576C1337.55 489.959 1334.05 488.045 1332.43 480.387C1330.82 472.728 1324.08 475.792 1323.81 474.26C1323.54 472.728 1322.19 468.134 1317.07 468.517C1311.95 468.899 1312.49 466.602 1310.88 461.241C1302.52 442.862 1276.93 461.241 1274.5 459.327C1272.08 457.412 1263.45 461.241 1258.87 461.241C1254.29 461.241 1237.05 478.472 1226.54 475.792C1216.03 473.111 1204.98 483.833 1191.51 489.193C1180.73 493.482 1125.4 496.851 1099.08 498Z" fill="#D7C9A5" fill-opacity="0.3"/>
<path d="M1099.08 1789H1376.08C1371.5 1784.79 1346.18 1780.19 1341.86 1780.58C1337.55 1780.96 1334.05 1779.04 1332.43 1771.39C1330.82 1763.73 1324.08 1766.79 1323.81 1765.26C1323.54 1763.73 1322.19 1759.13 1317.07 1759.52C1311.95 1759.9 1312.49 1757.6 1310.88 1752.24C1302.52 1733.86 1276.93 1752.24 1274.5 1750.33C1272.08 1748.41 1263.45 1752.24 1258.87 1752.24C1254.29 1752.24 1237.05 1769.47 1226.54 1766.79C1216.03 1764.11 1204.98 1774.83 1191.51 1780.19C1180.73 1784.48 1125.4 1787.85 1099.08 1789Z" fill="#D7C9A5" fill-opacity="0.7"/>
<path d="M550.085 39H212.085C217.674 35.3497 248.581 31.3675 253.842 31.6993C259.102 32.0312 263.377 30.3719 265.35 23.735C267.322 17.098 275.542 19.7528 275.871 18.4254C276.2 17.098 277.844 13.1158 284.091 13.4477C290.338 13.7795 289.68 11.7884 291.653 7.14256C301.846 -8.78617 333.081 7.14255 336.04 5.48331C338.999 3.82407 349.521 7.14256 355.11 7.14256C360.7 7.14256 381.743 22.0757 394.566 19.7528C407.388 17.4299 420.869 26.7216 437.309 31.3675C450.46 35.0842 517.973 38.0045 550.085 39Z" fill="#D7C9A5" fill-opacity="0.2"/>
<path d="M730 3398H392C397.589 3394.35 428.496 3390.37 433.757 3390.7C439.018 3391.03 443.292 3389.37 445.265 3382.73C447.237 3376.1 455.457 3378.75 455.786 3377.43C456.115 3376.1 457.759 3372.12 464.006 3372.45C470.253 3372.78 469.595 3370.79 471.568 3366.14C481.761 3350.21 512.996 3366.14 515.955 3364.48C518.914 3362.82 529.436 3366.14 535.025 3366.14C540.615 3366.14 561.658 3381.08 574.481 3378.75C587.303 3376.43 600.784 3385.72 617.224 3390.37C630.375 3394.08 697.888 3397 730 3398Z" fill="#D7C9A5" fill-opacity="0.2"/>
</svg>
