<svg width="541" height="145" viewBox="0 0 541 145" fill="none" xmlns="http://www.w3.org/2000/svg">
<path d="M539 144L540 1L2 36L192.5 66.5L1 101L539 144Z" fill="#F44D8A" stroke="#F44D8A"/>
<path d="M270.457 38.046V57H265.84V38.046H270.457ZM282.983 41.772C284.747 41.772 286.151 42.348 287.195 43.5C288.257 44.634 288.788 46.2 288.788 48.198V57H284.198V48.819C284.198 47.811 283.937 47.028 283.415 46.47C282.893 45.912 282.191 45.633 281.309 45.633C280.427 45.633 279.725 45.912 279.203 46.47C278.681 47.028 278.42 47.811 278.42 48.819V57H273.803V41.934H278.42V43.932C278.888 43.266 279.518 42.744 280.31 42.366C281.102 41.97 281.993 41.772 282.983 41.772ZM299.556 45.768H297.072V57H292.455V45.768H290.781V41.934H292.455V41.502C292.455 39.648 292.986 38.244 294.048 37.29C295.11 36.318 296.667 35.832 298.719 35.832C299.061 35.832 299.313 35.841 299.475 35.859V39.774C298.593 39.72 297.972 39.846 297.612 40.152C297.252 40.458 297.072 41.007 297.072 41.799V41.934H299.556V45.768ZM306.343 44.445C306.883 43.617 307.558 42.969 308.368 42.501C309.178 42.015 310.078 41.772 311.068 41.772V46.659H309.799C308.647 46.659 307.783 46.911 307.207 47.415C306.631 47.901 306.343 48.765 306.343 50.007V57H301.726V41.934H306.343V44.445ZM312.357 49.44C312.357 47.892 312.645 46.533 313.221 45.363C313.815 44.193 314.616 43.293 315.624 42.663C316.632 42.033 317.757 41.718 318.999 41.718C320.061 41.718 320.988 41.934 321.78 42.366C322.59 42.798 323.211 43.365 323.643 44.067V41.934H328.26V57H323.643V54.867C323.193 55.569 322.563 56.136 321.753 56.568C320.961 57 320.034 57.216 318.972 57.216C317.748 57.216 316.632 56.901 315.624 56.271C314.616 55.623 313.815 54.714 313.221 53.544C312.645 52.356 312.357 50.988 312.357 49.44ZM323.643 49.467C323.643 48.315 323.319 47.406 322.671 46.74C322.041 46.074 321.267 45.741 320.349 45.741C319.431 45.741 318.648 46.074 318 46.74C317.37 47.388 317.055 48.288 317.055 49.44C317.055 50.592 317.37 51.51 318 52.194C318.648 52.86 319.431 53.193 320.349 53.193C321.267 53.193 322.041 52.86 322.671 52.194C323.319 51.528 323.643 50.619 323.643 49.467ZM343.45 57.216C342.136 57.216 340.966 56.991 339.94 56.541C338.914 56.091 338.104 55.479 337.51 54.705C336.916 53.913 336.583 53.031 336.511 52.059H341.074C341.128 52.581 341.371 53.004 341.803 53.328C342.235 53.652 342.766 53.814 343.396 53.814C343.972 53.814 344.413 53.706 344.719 53.49C345.043 53.256 345.205 52.959 345.205 52.599C345.205 52.167 344.98 51.852 344.53 51.654C344.08 51.438 343.351 51.204 342.343 50.952C341.263 50.7 340.363 50.439 339.643 50.169C338.923 49.881 338.302 49.44 337.78 48.846C337.258 48.234 336.997 47.415 336.997 46.389C336.997 45.525 337.231 44.742 337.699 44.04C338.185 43.32 338.887 42.753 339.805 42.339C340.741 41.925 341.848 41.718 343.126 41.718C345.016 41.718 346.501 42.186 347.581 43.122C348.679 44.058 349.309 45.3 349.471 46.848H345.205C345.133 46.326 344.899 45.912 344.503 45.606C344.125 45.3 343.621 45.147 342.991 45.147C342.451 45.147 342.037 45.255 341.749 45.471C341.461 45.669 341.317 45.948 341.317 46.308C341.317 46.74 341.542 47.064 341.992 47.28C342.46 47.496 343.18 47.712 344.152 47.928C345.268 48.216 346.177 48.504 346.879 48.792C347.581 49.062 348.193 49.512 348.715 50.142C349.255 50.754 349.534 51.582 349.552 52.626C349.552 53.508 349.3 54.3 348.796 55.002C348.31 55.686 347.599 56.226 346.663 56.622C345.745 57.018 344.674 57.216 343.45 57.216ZM356.994 44.067C357.444 43.365 358.065 42.798 358.857 42.366C359.649 41.934 360.576 41.718 361.638 41.718C362.88 41.718 364.005 42.033 365.013 42.663C366.021 43.293 366.813 44.193 367.389 45.363C367.983 46.533 368.28 47.892 368.28 49.44C368.28 50.988 367.983 52.356 367.389 53.544C366.813 54.714 366.021 55.623 365.013 56.271C364.005 56.901 362.88 57.216 361.638 57.216C360.594 57.216 359.667 57 358.857 56.568C358.065 56.136 357.444 55.578 356.994 54.894V64.182H352.377V41.934H356.994V44.067ZM363.582 49.44C363.582 48.288 363.258 47.388 362.61 46.74C361.98 46.074 361.197 45.741 360.261 45.741C359.343 45.741 358.56 46.074 357.912 46.74C357.282 47.406 356.967 48.315 356.967 49.467C356.967 50.619 357.282 51.528 357.912 52.194C358.56 52.86 359.343 53.193 360.261 53.193C361.179 53.193 361.962 52.86 362.61 52.194C363.258 51.51 363.582 50.592 363.582 49.44ZM377.56 57.216C376.084 57.216 374.752 56.901 373.564 56.271C372.394 55.641 371.467 54.741 370.783 53.571C370.117 52.401 369.784 51.033 369.784 49.467C369.784 47.919 370.126 46.56 370.81 45.39C371.494 44.202 372.43 43.293 373.618 42.663C374.806 42.033 376.138 41.718 377.614 41.718C379.09 41.718 380.422 42.033 381.61 42.663C382.798 43.293 383.734 44.202 384.418 45.39C385.102 46.56 385.444 47.919 385.444 49.467C385.444 51.015 385.093 52.383 384.391 53.571C383.707 54.741 382.762 55.641 381.556 56.271C380.368 56.901 379.036 57.216 377.56 57.216ZM377.56 53.22C378.442 53.22 379.189 52.896 379.801 52.248C380.431 51.6 380.746 50.673 380.746 49.467C380.746 48.261 380.44 47.334 379.828 46.686C379.234 46.038 378.496 45.714 377.614 45.714C376.714 45.714 375.967 46.038 375.373 46.686C374.779 47.316 374.482 48.243 374.482 49.467C374.482 50.673 374.77 51.6 375.346 52.248C375.94 52.896 376.678 53.22 377.56 53.22ZM397.074 41.772C398.838 41.772 400.242 42.348 401.286 43.5C402.348 44.634 402.879 46.2 402.879 48.198V57H398.289V48.819C398.289 47.811 398.028 47.028 397.506 46.47C396.984 45.912 396.282 45.633 395.4 45.633C394.518 45.633 393.816 45.912 393.294 46.47C392.772 47.028 392.511 47.811 392.511 48.819V57H387.894V41.934H392.511V43.932C392.979 43.266 393.609 42.744 394.401 42.366C395.193 41.97 396.084 41.772 397.074 41.772ZM412.216 57.216C410.902 57.216 409.732 56.991 408.706 56.541C407.68 56.091 406.87 55.479 406.276 54.705C405.682 53.913 405.349 53.031 405.277 52.059H409.84C409.894 52.581 410.137 53.004 410.569 53.328C411.001 53.652 411.532 53.814 412.162 53.814C412.738 53.814 413.179 53.706 413.485 53.49C413.809 53.256 413.971 52.959 413.971 52.599C413.971 52.167 413.746 51.852 413.296 51.654C412.846 51.438 412.117 51.204 411.109 50.952C410.029 50.7 409.129 50.439 408.409 50.169C407.689 49.881 407.068 49.44 406.546 48.846C406.024 48.234 405.763 47.415 405.763 46.389C405.763 45.525 405.997 44.742 406.465 44.04C406.951 43.32 407.653 42.753 408.571 42.339C409.507 41.925 410.614 41.718 411.892 41.718C413.782 41.718 415.267 42.186 416.347 43.122C417.445 44.058 418.075 45.3 418.237 46.848H413.971C413.899 46.326 413.665 45.912 413.269 45.606C412.891 45.3 412.387 45.147 411.757 45.147C411.217 45.147 410.803 45.255 410.515 45.471C410.227 45.669 410.083 45.948 410.083 46.308C410.083 46.74 410.308 47.064 410.758 47.28C411.226 47.496 411.946 47.712 412.918 47.928C414.034 48.216 414.943 48.504 415.645 48.792C416.347 49.062 416.959 49.512 417.481 50.142C418.021 50.754 418.3 51.582 418.318 52.626C418.318 53.508 418.066 54.3 417.562 55.002C417.076 55.686 416.365 56.226 415.429 56.622C414.511 57.018 413.44 57.216 412.216 57.216ZM428.001 57.216C426.525 57.216 425.193 56.901 424.005 56.271C422.835 55.641 421.908 54.741 421.224 53.571C420.558 52.401 420.225 51.033 420.225 49.467C420.225 47.919 420.567 46.56 421.251 45.39C421.935 44.202 422.871 43.293 424.059 42.663C425.247 42.033 426.579 41.718 428.055 41.718C429.531 41.718 430.863 42.033 432.051 42.663C433.239 43.293 434.175 44.202 434.859 45.39C435.543 46.56 435.885 47.919 435.885 49.467C435.885 51.015 435.534 52.383 434.832 53.571C434.148 54.741 433.203 55.641 431.997 56.271C430.809 56.901 429.477 57.216 428.001 57.216ZM428.001 53.22C428.883 53.22 429.63 52.896 430.242 52.248C430.872 51.6 431.187 50.673 431.187 49.467C431.187 48.261 430.881 47.334 430.269 46.686C429.675 46.038 428.937 45.714 428.055 45.714C427.155 45.714 426.408 46.038 425.814 46.686C425.22 47.316 424.923 48.243 424.923 49.467C424.923 50.673 425.211 51.6 425.787 52.248C426.381 52.896 427.119 53.22 428.001 53.22ZM442.951 44.445C443.491 43.617 444.166 42.969 444.976 42.501C445.786 42.015 446.686 41.772 447.676 41.772V46.659H446.407C445.255 46.659 444.391 46.911 443.815 47.415C443.239 47.901 442.951 48.765 442.951 50.007V57H438.334V41.934H442.951V44.445ZM464.085 49.224C464.085 49.656 464.058 50.106 464.004 50.574H453.555C453.627 51.51 453.924 52.23 454.446 52.734C454.986 53.22 455.643 53.463 456.417 53.463C457.569 53.463 458.37 52.977 458.82 52.005H463.734C463.482 52.995 463.023 53.886 462.357 54.678C461.709 55.47 460.89 56.091 459.9 56.541C458.91 56.991 457.803 57.216 456.579 57.216C455.103 57.216 453.789 56.901 452.637 56.271C451.485 55.641 450.585 54.741 449.937 53.571C449.289 52.401 448.965 51.033 448.965 49.467C448.965 47.901 449.28 46.533 449.91 45.363C450.558 44.193 451.458 43.293 452.61 42.663C453.762 42.033 455.085 41.718 456.579 41.718C458.037 41.718 459.333 42.024 460.467 42.636C461.601 43.248 462.483 44.121 463.113 45.255C463.761 46.389 464.085 47.712 464.085 49.224ZM459.36 48.009C459.36 47.217 459.09 46.587 458.55 46.119C458.01 45.651 457.335 45.417 456.525 45.417C455.751 45.417 455.094 45.642 454.554 46.092C454.032 46.542 453.708 47.181 453.582 48.009H459.36ZM465.603 49.44C465.603 47.892 465.891 46.533 466.467 45.363C467.061 44.193 467.862 43.293 468.87 42.663C469.878 42.033 471.003 41.718 472.245 41.718C473.235 41.718 474.135 41.925 474.945 42.339C475.773 42.753 476.421 43.311 476.889 44.013V37.02H481.506V57H476.889V54.84C476.457 55.56 475.836 56.136 475.026 56.568C474.234 57 473.307 57.216 472.245 57.216C471.003 57.216 469.878 56.901 468.87 56.271C467.862 55.623 467.061 54.714 466.467 53.544C465.891 52.356 465.603 50.988 465.603 49.44ZM476.889 49.467C476.889 48.315 476.565 47.406 475.917 46.74C475.287 46.074 474.513 45.741 473.595 45.741C472.677 45.741 471.894 46.074 471.246 46.74C470.616 47.388 470.301 48.288 470.301 49.44C470.301 50.592 470.616 51.51 471.246 52.194C471.894 52.86 472.677 53.193 473.595 53.193C474.513 53.193 475.287 52.86 475.917 52.194C476.565 51.528 476.889 50.619 476.889 49.467ZM495.185 44.067C495.617 43.365 496.238 42.798 497.048 42.366C497.858 41.934 498.785 41.718 499.829 41.718C501.071 41.718 502.196 42.033 503.204 42.663C504.212 43.293 505.004 44.193 505.58 45.363C506.174 46.533 506.471 47.892 506.471 49.44C506.471 50.988 506.174 52.356 505.58 53.544C505.004 54.714 504.212 55.623 503.204 56.271C502.196 56.901 501.071 57.216 499.829 57.216C498.767 57.216 497.84 57.009 497.048 56.595C496.256 56.163 495.635 55.596 495.185 54.894V57H490.568V37.02H495.185V44.067ZM501.773 49.44C501.773 48.288 501.449 47.388 500.801 46.74C500.171 46.074 499.388 45.741 498.452 45.741C497.534 45.741 496.751 46.074 496.103 46.74C495.473 47.406 495.158 48.315 495.158 49.467C495.158 50.619 495.473 51.528 496.103 52.194C496.751 52.86 497.534 53.193 498.452 53.193C499.37 53.193 500.153 52.86 500.801 52.194C501.449 51.51 501.773 50.592 501.773 49.44ZM524.283 41.934L514.833 64.155H509.865L513.321 56.487L507.192 41.934H512.349L515.832 51.357L519.288 41.934H524.283ZM212.765 82.718C213.827 82.718 214.754 82.934 215.546 83.366C216.356 83.798 216.977 84.365 217.409 85.067V82.934H222.026V97.973C222.026 99.359 221.747 100.61 221.189 101.726C220.649 102.86 219.812 103.76 218.678 104.426C217.562 105.092 216.167 105.425 214.493 105.425C212.261 105.425 210.452 104.894 209.066 103.832C207.68 102.788 206.888 101.366 206.69 99.566H211.253C211.397 100.142 211.739 100.592 212.279 100.916C212.819 101.258 213.485 101.429 214.277 101.429C215.231 101.429 215.987 101.15 216.545 100.592C217.121 100.052 217.409 99.179 217.409 97.973V95.84C216.959 96.542 216.338 97.118 215.546 97.568C214.754 98 213.827 98.216 212.765 98.216C211.523 98.216 210.398 97.901 209.39 97.271C208.382 96.623 207.581 95.714 206.987 94.544C206.411 93.356 206.123 91.988 206.123 90.44C206.123 88.892 206.411 87.533 206.987 86.363C207.581 85.193 208.382 84.293 209.39 83.663C210.398 83.033 211.523 82.718 212.765 82.718ZM217.409 90.467C217.409 89.315 217.085 88.406 216.437 87.74C215.807 87.074 215.033 86.741 214.115 86.741C213.197 86.741 212.414 87.074 211.766 87.74C211.136 88.388 210.821 89.288 210.821 90.44C210.821 91.592 211.136 92.51 211.766 93.194C212.414 93.86 213.197 94.193 214.115 94.193C215.033 94.193 215.807 93.86 216.437 93.194C217.085 92.528 217.409 91.619 217.409 90.467ZM232.224 98.216C230.748 98.216 229.416 97.901 228.228 97.271C227.058 96.641 226.131 95.741 225.447 94.571C224.781 93.401 224.448 92.033 224.448 90.467C224.448 88.919 224.79 87.56 225.474 86.39C226.158 85.202 227.094 84.293 228.282 83.663C229.47 83.033 230.802 82.718 232.278 82.718C233.754 82.718 235.086 83.033 236.274 83.663C237.462 84.293 238.398 85.202 239.082 86.39C239.766 87.56 240.108 88.919 240.108 90.467C240.108 92.015 239.757 93.383 239.055 94.571C238.371 95.741 237.426 96.641 236.22 97.271C235.032 97.901 233.7 98.216 232.224 98.216ZM232.224 94.22C233.106 94.22 233.853 93.896 234.465 93.248C235.095 92.6 235.41 91.673 235.41 90.467C235.41 89.261 235.104 88.334 234.492 87.686C233.898 87.038 233.16 86.714 232.278 86.714C231.378 86.714 230.631 87.038 230.037 87.686C229.443 88.316 229.146 89.243 229.146 90.467C229.146 91.673 229.434 92.6 230.01 93.248C230.604 93.896 231.342 94.22 232.224 94.22ZM249.416 98.216C247.94 98.216 246.608 97.901 245.42 97.271C244.25 96.641 243.323 95.741 242.639 94.571C241.973 93.401 241.64 92.033 241.64 90.467C241.64 88.919 241.982 87.56 242.666 86.39C243.35 85.202 244.286 84.293 245.474 83.663C246.662 83.033 247.994 82.718 249.47 82.718C250.946 82.718 252.278 83.033 253.466 83.663C254.654 84.293 255.59 85.202 256.274 86.39C256.958 87.56 257.3 88.919 257.3 90.467C257.3 92.015 256.949 93.383 256.247 94.571C255.563 95.741 254.618 96.641 253.412 97.271C252.224 97.901 250.892 98.216 249.416 98.216ZM249.416 94.22C250.298 94.22 251.045 93.896 251.657 93.248C252.287 92.6 252.602 91.673 252.602 90.467C252.602 89.261 252.296 88.334 251.684 87.686C251.09 87.038 250.352 86.714 249.47 86.714C248.57 86.714 247.823 87.038 247.229 87.686C246.635 88.316 246.338 89.243 246.338 90.467C246.338 91.673 246.626 92.6 247.202 93.248C247.796 93.896 248.534 94.22 249.416 94.22ZM261.909 98.216C261.099 98.216 260.433 97.982 259.911 97.514C259.407 97.028 259.155 96.434 259.155 95.732C259.155 95.012 259.407 94.409 259.911 93.923C260.433 93.437 261.099 93.194 261.909 93.194C262.701 93.194 263.349 93.437 263.853 93.923C264.375 94.409 264.636 95.012 264.636 95.732C264.636 96.434 264.375 97.028 263.853 97.514C263.349 97.982 262.701 98.216 261.909 98.216ZM273.093 82.718C274.155 82.718 275.082 82.934 275.874 83.366C276.684 83.798 277.305 84.365 277.737 85.067V82.934H282.354V97.973C282.354 99.359 282.075 100.61 281.517 101.726C280.977 102.86 280.14 103.76 279.006 104.426C277.89 105.092 276.495 105.425 274.821 105.425C272.589 105.425 270.78 104.894 269.394 103.832C268.008 102.788 267.216 101.366 267.018 99.566H271.581C271.725 100.142 272.067 100.592 272.607 100.916C273.147 101.258 273.813 101.429 274.605 101.429C275.559 101.429 276.315 101.15 276.873 100.592C277.449 100.052 277.737 99.179 277.737 97.973V95.84C277.287 96.542 276.666 97.118 275.874 97.568C275.082 98 274.155 98.216 273.093 98.216C271.851 98.216 270.726 97.901 269.718 97.271C268.71 96.623 267.909 95.714 267.315 94.544C266.739 93.356 266.451 91.988 266.451 90.44C266.451 88.892 266.739 87.533 267.315 86.363C267.909 85.193 268.71 84.293 269.718 83.663C270.726 83.033 271.851 82.718 273.093 82.718ZM277.737 90.467C277.737 89.315 277.413 88.406 276.765 87.74C276.135 87.074 275.361 86.741 274.443 86.741C273.525 86.741 272.742 87.074 272.094 87.74C271.464 88.388 271.149 89.288 271.149 90.44C271.149 91.592 271.464 92.51 272.094 93.194C272.742 93.86 273.525 94.193 274.443 94.193C275.361 94.193 276.135 93.86 276.765 93.194C277.413 92.528 277.737 91.619 277.737 90.467ZM290.312 78.02V98H285.695V78.02H290.312ZM307.859 90.224C307.859 90.656 307.832 91.106 307.778 91.574H297.329C297.401 92.51 297.698 93.23 298.22 93.734C298.76 94.22 299.417 94.463 300.191 94.463C301.343 94.463 302.144 93.977 302.594 93.005H307.508C307.256 93.995 306.797 94.886 306.131 95.678C305.483 96.47 304.664 97.091 303.674 97.541C302.684 97.991 301.577 98.216 300.353 98.216C298.877 98.216 297.563 97.901 296.411 97.271C295.259 96.641 294.359 95.741 293.711 94.571C293.063 93.401 292.739 92.033 292.739 90.467C292.739 88.901 293.054 87.533 293.684 86.363C294.332 85.193 295.232 84.293 296.384 83.663C297.536 83.033 298.859 82.718 300.353 82.718C301.811 82.718 303.107 83.024 304.241 83.636C305.375 84.248 306.257 85.121 306.887 86.255C307.535 87.389 307.859 88.712 307.859 90.224ZM303.134 89.009C303.134 88.217 302.864 87.587 302.324 87.119C301.784 86.651 301.109 86.417 300.299 86.417C299.525 86.417 298.868 86.642 298.328 87.092C297.806 87.542 297.482 88.181 297.356 89.009H303.134ZM320.582 72.35L313.346 103.049H308.891L316.127 72.35H320.582ZM321.611 90.467C321.611 88.901 321.926 87.533 322.556 86.363C323.204 85.193 324.095 84.293 325.229 83.663C326.381 83.033 327.695 82.718 329.171 82.718C331.061 82.718 332.636 83.213 333.896 84.203C335.174 85.193 336.011 86.588 336.407 88.388H331.493C331.079 87.236 330.278 86.66 329.09 86.66C328.244 86.66 327.569 86.993 327.065 87.659C326.561 88.307 326.309 89.243 326.309 90.467C326.309 91.691 326.561 92.636 327.065 93.302C327.569 93.95 328.244 94.274 329.09 94.274C330.278 94.274 331.079 93.698 331.493 92.546H336.407C336.011 94.31 335.174 95.696 333.896 96.704C332.618 97.712 331.043 98.216 329.171 98.216C327.695 98.216 326.381 97.901 325.229 97.271C324.095 96.641 323.204 95.741 322.556 94.571C321.926 93.401 321.611 92.033 321.611 90.467ZM347.274 94.085V98H344.925C343.251 98 341.946 97.595 341.01 96.785C340.074 95.957 339.606 94.616 339.606 92.762V86.768H337.77V82.934H339.606V79.262H344.223V82.934H347.247V86.768H344.223V92.816C344.223 93.266 344.331 93.59 344.547 93.788C344.763 93.986 345.123 94.085 345.627 94.085H347.274ZM357.406 86.768H354.922V98H350.305V86.768H348.631V82.934H350.305V82.502C350.305 80.648 350.836 79.244 351.898 78.29C352.96 77.318 354.517 76.832 356.569 76.832C356.911 76.832 357.163 76.841 357.325 76.859V80.774C356.443 80.72 355.822 80.846 355.462 81.152C355.102 81.458 354.922 82.007 354.922 82.799V82.934H357.406V86.768ZM365.704 98.216C364.39 98.216 363.22 97.991 362.194 97.541C361.168 97.091 360.358 96.479 359.764 95.705C359.17 94.913 358.837 94.031 358.765 93.059H363.328C363.382 93.581 363.625 94.004 364.057 94.328C364.489 94.652 365.02 94.814 365.65 94.814C366.226 94.814 366.667 94.706 366.973 94.49C367.297 94.256 367.459 93.959 367.459 93.599C367.459 93.167 367.234 92.852 366.784 92.654C366.334 92.438 365.605 92.204 364.597 91.952C363.517 91.7 362.617 91.439 361.897 91.169C361.177 90.881 360.556 90.44 360.034 89.846C359.512 89.234 359.251 88.415 359.251 87.389C359.251 86.525 359.485 85.742 359.953 85.04C360.439 84.32 361.141 83.753 362.059 83.339C362.995 82.925 364.102 82.718 365.38 82.718C367.27 82.718 368.755 83.186 369.835 84.122C370.933 85.058 371.563 86.3 371.725 87.848H367.459C367.387 87.326 367.153 86.912 366.757 86.606C366.379 86.3 365.875 86.147 365.245 86.147C364.705 86.147 364.291 86.255 364.003 86.471C363.715 86.669 363.571 86.948 363.571 87.308C363.571 87.74 363.796 88.064 364.246 88.28C364.714 88.496 365.434 88.712 366.406 88.928C367.522 89.216 368.431 89.504 369.133 89.792C369.835 90.062 370.447 90.512 370.969 91.142C371.509 91.754 371.788 92.582 371.806 93.626C371.806 94.508 371.554 95.3 371.05 96.002C370.564 96.686 369.853 97.226 368.917 97.622C367.999 98.018 366.928 98.216 365.704 98.216ZM379.248 85.067C379.698 84.365 380.319 83.798 381.111 83.366C381.903 82.934 382.83 82.718 383.892 82.718C385.134 82.718 386.259 83.033 387.267 83.663C388.275 84.293 389.067 85.193 389.643 86.363C390.237 87.533 390.534 88.892 390.534 90.44C390.534 91.988 390.237 93.356 389.643 94.544C389.067 95.714 388.275 96.623 387.267 97.271C386.259 97.901 385.134 98.216 383.892 98.216C382.848 98.216 381.921 98 381.111 97.568C380.319 97.136 379.698 96.578 379.248 95.894V105.182H374.631V82.934H379.248V85.067ZM385.836 90.44C385.836 89.288 385.512 88.388 384.864 87.74C384.234 87.074 383.451 86.741 382.515 86.741C381.597 86.741 380.814 87.074 380.166 87.74C379.536 88.406 379.221 89.315 379.221 90.467C379.221 91.619 379.536 92.528 380.166 93.194C380.814 93.86 381.597 94.193 382.515 94.193C383.433 94.193 384.216 93.86 384.864 93.194C385.512 92.51 385.836 91.592 385.836 90.44ZM399.814 98.216C398.338 98.216 397.006 97.901 395.818 97.271C394.648 96.641 393.721 95.741 393.037 94.571C392.371 93.401 392.038 92.033 392.038 90.467C392.038 88.919 392.38 87.56 393.064 86.39C393.748 85.202 394.684 84.293 395.872 83.663C397.06 83.033 398.392 82.718 399.868 82.718C401.344 82.718 402.676 83.033 403.864 83.663C405.052 84.293 405.988 85.202 406.672 86.39C407.356 87.56 407.698 88.919 407.698 90.467C407.698 92.015 407.347 93.383 406.645 94.571C405.961 95.741 405.016 96.641 403.81 97.271C402.622 97.901 401.29 98.216 399.814 98.216ZM399.814 94.22C400.696 94.22 401.443 93.896 402.055 93.248C402.685 92.6 403 91.673 403 90.467C403 89.261 402.694 88.334 402.082 87.686C401.488 87.038 400.75 86.714 399.868 86.714C398.968 86.714 398.221 87.038 397.627 87.686C397.033 88.316 396.736 89.243 396.736 90.467C396.736 91.673 397.024 92.6 397.6 93.248C398.194 93.896 398.932 94.22 399.814 94.22ZM419.328 82.772C421.092 82.772 422.496 83.348 423.54 84.5C424.602 85.634 425.133 87.2 425.133 89.198V98H420.543V89.819C420.543 88.811 420.282 88.028 419.76 87.47C419.238 86.912 418.536 86.633 417.654 86.633C416.772 86.633 416.07 86.912 415.548 87.47C415.026 88.028 414.765 88.811 414.765 89.819V98H410.148V82.934H414.765V84.932C415.233 84.266 415.863 83.744 416.655 83.366C417.447 82.97 418.338 82.772 419.328 82.772ZM434.47 98.216C433.156 98.216 431.986 97.991 430.96 97.541C429.934 97.091 429.124 96.479 428.53 95.705C427.936 94.913 427.603 94.031 427.531 93.059H432.094C432.148 93.581 432.391 94.004 432.823 94.328C433.255 94.652 433.786 94.814 434.416 94.814C434.992 94.814 435.433 94.706 435.739 94.49C436.063 94.256 436.225 93.959 436.225 93.599C436.225 93.167 436 92.852 435.55 92.654C435.1 92.438 434.371 92.204 433.363 91.952C432.283 91.7 431.383 91.439 430.663 91.169C429.943 90.881 429.322 90.44 428.8 89.846C428.278 89.234 428.017 88.415 428.017 87.389C428.017 86.525 428.251 85.742 428.719 85.04C429.205 84.32 429.907 83.753 430.825 83.339C431.761 82.925 432.868 82.718 434.146 82.718C436.036 82.718 437.521 83.186 438.601 84.122C439.699 85.058 440.329 86.3 440.491 87.848H436.225C436.153 87.326 435.919 86.912 435.523 86.606C435.145 86.3 434.641 86.147 434.011 86.147C433.471 86.147 433.057 86.255 432.769 86.471C432.481 86.669 432.337 86.948 432.337 87.308C432.337 87.74 432.562 88.064 433.012 88.28C433.48 88.496 434.2 88.712 435.172 88.928C436.288 89.216 437.197 89.504 437.899 89.792C438.601 90.062 439.213 90.512 439.735 91.142C440.275 91.754 440.554 92.582 440.572 93.626C440.572 94.508 440.32 95.3 439.816 96.002C439.33 96.686 438.619 97.226 437.683 97.622C436.765 98.018 435.694 98.216 434.47 98.216ZM450.255 98.216C448.779 98.216 447.447 97.901 446.259 97.271C445.089 96.641 444.162 95.741 443.478 94.571C442.812 93.401 442.479 92.033 442.479 90.467C442.479 88.919 442.821 87.56 443.505 86.39C444.189 85.202 445.125 84.293 446.313 83.663C447.501 83.033 448.833 82.718 450.309 82.718C451.785 82.718 453.117 83.033 454.305 83.663C455.493 84.293 456.429 85.202 457.113 86.39C457.797 87.56 458.139 88.919 458.139 90.467C458.139 92.015 457.788 93.383 457.086 94.571C456.402 95.741 455.457 96.641 454.251 97.271C453.063 97.901 451.731 98.216 450.255 98.216ZM450.255 94.22C451.137 94.22 451.884 93.896 452.496 93.248C453.126 92.6 453.441 91.673 453.441 90.467C453.441 89.261 453.135 88.334 452.523 87.686C451.929 87.038 451.191 86.714 450.309 86.714C449.409 86.714 448.662 87.038 448.068 87.686C447.474 88.316 447.177 89.243 447.177 90.467C447.177 91.673 447.465 92.6 448.041 93.248C448.635 93.896 449.373 94.22 450.255 94.22ZM465.205 85.445C465.745 84.617 466.42 83.969 467.23 83.501C468.04 83.015 468.94 82.772 469.93 82.772V87.659H468.661C467.509 87.659 466.645 87.911 466.069 88.415C465.493 88.901 465.205 89.765 465.205 91.007V98H460.588V82.934H465.205V85.445ZM478.266 98.216C476.952 98.216 475.782 97.991 474.756 97.541C473.73 97.091 472.92 96.479 472.326 95.705C471.732 94.913 471.399 94.031 471.327 93.059H475.89C475.944 93.581 476.187 94.004 476.619 94.328C477.051 94.652 477.582 94.814 478.212 94.814C478.788 94.814 479.229 94.706 479.535 94.49C479.859 94.256 480.021 93.959 480.021 93.599C480.021 93.167 479.796 92.852 479.346 92.654C478.896 92.438 478.167 92.204 477.159 91.952C476.079 91.7 475.179 91.439 474.459 91.169C473.739 90.881 473.118 90.44 472.596 89.846C472.074 89.234 471.813 88.415 471.813 87.389C471.813 86.525 472.047 85.742 472.515 85.04C473.001 84.32 473.703 83.753 474.621 83.339C475.557 82.925 476.664 82.718 477.942 82.718C479.832 82.718 481.317 83.186 482.397 84.122C483.495 85.058 484.125 86.3 484.287 87.848H480.021C479.949 87.326 479.715 86.912 479.319 86.606C478.941 86.3 478.437 86.147 477.807 86.147C477.267 86.147 476.853 86.255 476.565 86.471C476.277 86.669 476.133 86.948 476.133 87.308C476.133 87.74 476.358 88.064 476.808 88.28C477.276 88.496 477.996 88.712 478.968 88.928C480.084 89.216 480.993 89.504 481.695 89.792C482.397 90.062 483.009 90.512 483.531 91.142C484.071 91.754 484.35 92.582 484.368 93.626C484.368 94.508 484.116 95.3 483.612 96.002C483.126 96.686 482.415 97.226 481.479 97.622C480.561 98.018 479.49 98.216 478.266 98.216ZM496.454 82.772C498.182 82.772 499.568 83.348 500.612 84.5C501.656 85.634 502.178 87.2 502.178 89.198V98H497.588V89.819C497.588 88.811 497.327 88.028 496.805 87.47C496.283 86.912 495.581 86.633 494.699 86.633C493.817 86.633 493.115 86.912 492.593 87.47C492.071 88.028 491.81 88.811 491.81 89.819V98H487.193V78.02H491.81V84.959C492.278 84.293 492.917 83.762 493.727 83.366C494.537 82.97 495.446 82.772 496.454 82.772ZM507.708 81.368C506.898 81.368 506.232 81.134 505.71 80.666C505.206 80.18 504.954 79.586 504.954 78.884C504.954 78.164 505.206 77.57 505.71 77.102C506.232 76.616 506.898 76.373 507.708 76.373C508.5 76.373 509.148 76.616 509.652 77.102C510.174 77.57 510.435 78.164 510.435 78.884C510.435 79.586 510.174 80.18 509.652 80.666C509.148 81.134 508.5 81.368 507.708 81.368ZM510.003 82.934V98H505.386V82.934H510.003ZM517.966 85.067C518.416 84.365 519.037 83.798 519.829 83.366C520.621 82.934 521.548 82.718 522.61 82.718C523.852 82.718 524.977 83.033 525.985 83.663C526.993 84.293 527.785 85.193 528.361 86.363C528.955 87.533 529.252 88.892 529.252 90.44C529.252 91.988 528.955 93.356 528.361 94.544C527.785 95.714 526.993 96.623 525.985 97.271C524.977 97.901 523.852 98.216 522.61 98.216C521.566 98.216 520.639 98 519.829 97.568C519.037 97.136 518.416 96.578 517.966 95.894V105.182H513.349V82.934H517.966V85.067ZM524.554 90.44C524.554 89.288 524.23 88.388 523.582 87.74C522.952 87.074 522.169 86.741 521.233 86.741C520.315 86.741 519.532 87.074 518.884 87.74C518.254 88.406 517.939 89.315 517.939 90.467C517.939 91.619 518.254 92.528 518.884 93.194C519.532 93.86 520.315 94.193 521.233 94.193C522.151 94.193 522.934 93.86 523.582 93.194C524.23 92.51 524.554 91.592 524.554 90.44Z" fill="white"/>
</svg>
