<svg xmlns="http://www.w3.org/2000/svg" width="77" height="77" viewBox="0 0 77 77" fill="none">
  <path d="M34.5655 28.9623C35.2506 28.5095 35.8893 28.0836 36.4693 27.7327C37.85 26.8984 38.294 25.1019 37.4568 23.7216C36.6244 22.3407 34.8272 21.9002 33.4474 22.7326C32.8033 23.1212 32.0932 23.5913 31.3352 24.093C28.8833 25.7187 25.1538 28.2486 23.061 27.6571C21.5314 27.2248 21.3469 26.1711 20.8434 25.4075C19.7598 23.4079 17.4576 22.0807 15.3773 22.1241C15.3773 22.1241 13.5219 22.1241 11.2615 23.0134C1.07593 26.6458 1.04875 29.0556 1.05002 30.2342C1.05145 31.309 1.07354 32.3476 4.08867 34.101H0.00969445L0 68.0647H25.4386L27.1271 52.5206C27.1271 52.5206 18.6922 51.8992 14.4913 51.2909C9.4443 50.5601 8.56179 45.9076 8.56179 45.9076L5.93523 35.0765C7.44041 35.8096 9.39456 36.6505 11.9744 37.6449C12.3197 37.7776 12.6741 37.8407 13.0233 37.8407C14.197 37.8407 15.3028 37.1287 15.7506 35.9697C16.3304 34.4632 15.5795 32.7716 14.074 32.1923C12.486 31.5805 10.7087 30.8308 9.2369 30.1535C9.48896 30.0373 9.76581 29.9178 10.0387 29.7972L14.1188 31.418C16.5816 32.369 17.2696 34.3615 16.5414 36.2549C15.9978 37.6673 14.3568 39.4261 11.4771 38.289C10.5879 37.9381 9.78726 37.6263 9.02871 37.3135L10.2958 45.5468C10.6567 47.8903 12.0953 49.1037 14.5881 49.7754C15.7921 50.2782 28.8426 51.2686 28.8426 51.2686C28.4032 56.3813 27.5082 64.7704 27.4005 65.7513C27.1079 67.7907 28.4281 69.744 30.4697 70.2044C30.7646 70.2699 31.0599 70.3015 31.348 70.3015C33.1706 70.3015 34.814 69.0425 35.2307 67.1907C35.406 66.4101 36.9371 48.147 36.9516 47.965C37.0436 46.8578 36.6207 45.6506 35.8712 44.8315C34.9092 43.7796 34.0469 42.8499 23.7984 42.5026L22.4059 33.4628C22.8228 33.5254 23.2398 33.567 23.6576 33.567C27.6222 33.5672 31.5685 30.9503 34.5655 28.9623Z" fill="#010002"/>
  <path d="M14.1615 21.7478C18.3174 21.7478 21.6863 18.3789 21.6863 14.223C21.6863 10.0672 18.3174 6.69824 14.1615 6.69824C10.0057 6.69824 6.63672 10.0672 6.63672 14.223C6.63672 18.3789 10.0057 21.7478 14.1615 21.7478Z" fill="#010002"/>
  <path d="M76.9909 34.101H72.9116C75.9268 32.3476 75.949 31.309 75.9503 30.2342C75.9515 29.0556 75.9245 26.6458 65.7388 23.0134C63.4781 22.1241 61.6231 22.1241 61.6231 22.1241C59.5427 22.0807 57.2406 23.4079 56.1571 25.4075C55.6533 26.1711 55.4691 27.225 53.9394 27.6571C51.8465 28.2487 48.1169 25.7187 45.6653 24.093C44.9071 23.5914 44.1971 23.1212 43.5527 22.7326C42.1732 21.9 40.3761 22.3407 39.5435 23.7216C38.7059 25.1019 39.1501 26.8984 40.531 27.7327C41.1108 28.0836 41.7498 28.5095 42.4348 28.9623C45.4317 30.9503 49.3779 33.5672 53.3425 33.5672C53.7603 33.5672 54.1775 33.5255 54.5942 33.4629L53.2018 42.5028C42.9534 42.8502 42.0911 43.7797 41.1289 44.8317C40.3793 45.6508 39.9565 46.858 40.0487 47.9652C40.0632 48.1472 41.5943 66.4102 41.7694 67.1909C42.1863 69.0427 43.8297 70.3017 45.6523 70.3017C45.9404 70.3017 46.2355 70.2701 46.5305 70.2046C48.5719 69.7443 49.8922 67.7908 49.5998 65.7515C49.4917 64.7706 48.5967 56.3814 48.1577 51.2688C48.1577 51.2688 61.2082 50.2784 62.4122 49.7755C64.9048 49.1037 66.3432 47.8905 66.7045 45.547L67.9714 37.3137C67.213 37.6265 66.4119 37.9381 65.523 38.2892C62.6433 39.4261 61.0024 37.6673 60.4587 36.2551C59.7303 34.3617 60.4185 32.3692 62.8814 31.4182L66.9613 29.7973C67.2345 29.9179 67.5112 30.0373 67.7632 30.1536C66.2916 30.831 64.5145 31.5806 62.9263 32.1925C61.4207 32.7718 60.6698 34.4634 61.2495 35.9698C61.6974 37.1289 62.8032 37.8408 63.9767 37.8408C64.3258 37.8408 64.6806 37.7778 65.0259 37.6451C67.6056 36.6508 69.5597 35.8099 71.0649 35.0767L68.4383 45.9077C68.4383 45.9077 67.5558 50.5603 62.5088 51.291C58.308 51.8994 49.8732 52.5208 49.8732 52.5208L51.5616 68.0648H77.0001L76.9909 34.101Z" fill="#010002"/>
  <path d="M62.8393 21.7478C66.9951 21.7478 70.3641 18.3789 70.3641 14.223C70.3641 10.0672 66.9951 6.69824 62.8393 6.69824C58.6834 6.69824 55.3145 10.0672 55.3145 14.223C55.3145 18.3789 58.6834 21.7478 62.8393 21.7478Z" fill="#010002"/>
</svg>