<svg xmlns="http://www.w3.org/2000/svg" width="87" height="87" viewBox="0 0 87 87" fill="none">
  <g clip-path="url(#clip0_1422_605)">
    <path d="M16.8242 73.0658L22.2935 78.8272L42.1771 59.9501L36.4077 54.4727L16.8242 73.0658Z" fill="black"/>
    <path d="M83.5155 15.2241C77.9346 9.34587 67.5296 10.1637 60.8866 16.4693C56.8483 20.3058 55.0853 25.5894 55.0721 30.0179C55.0614 33.9076 54.7482 36.5864 51.7294 39.9291L47.7734 43.6859L53.5402 49.1632L57.1988 45.6877C60.6902 42.8468 63.385 42.6716 67.2667 42.8628C71.6899 43.0779 77.0612 41.5936 81.1021 37.7571C87.7396 31.4517 89.0989 21.1024 83.5155 15.2241Z" fill="black"/>
    <path d="M37.3025 32.2957C37.6821 28.1326 37.4856 25.2068 31.4349 19.5038C31.4349 19.5038 24.5026 12.9221 20.5811 9.19705C17.3022 6.08527 12.6478 10.7608 16.0012 13.9469L27.3727 24.7396C28.0976 25.43 28.1269 26.577 27.4392 27.3017L27.1046 27.6548C26.4169 28.3797 25.2672 28.4089 24.5425 27.7185L13.1205 16.8779C11.2461 15.0964 9.48846 15.8264 8.34149 17.0345C7.19452 18.2452 6.55731 20.0347 8.43172 21.8163L19.8537 32.6595C20.5811 33.3472 20.6078 34.4969 19.9201 35.2216L19.5856 35.5722C18.8952 36.2996 17.7482 36.3288 17.0235 35.6411L5.65468 24.8458C2.29873 21.6598 -2.12723 26.5503 1.15175 29.6594C5.07321 33.3871 12.0055 39.9689 12.0055 39.9689C18.0138 45.717 20.9449 45.7622 25.0842 45.1648C28.4162 44.6842 30.8403 43.8691 34.5946 47.4375L67.6576 78.8278L73.1271 73.069L40.064 41.6759C36.3069 38.1101 36.9971 35.649 37.3025 32.2957Z" fill="black"/>
  </g>
  <defs>
    <clipPath id="clip0_1422_605">
      <rect width="87" height="87" fill="white"/>
    </clipPath>
  </defs>
</svg>