<svg xmlns="http://www.w3.org/2000/svg" width="86" height="86" viewBox="0 0 86 86" fill="none">
  <g clip-path="url(#clip0_1422_594)">
    <path d="M43.0005 12.8254C46.7256 12.8254 49.9433 10.4502 51.0992 6.95605C48.8939 7.56309 46.0831 7.92947 43.0005 7.92947C39.9181 7.92947 37.1073 7.56309 34.9023 6.95605C36.0576 10.4499 39.275 12.8254 43.0005 12.8254Z" fill="black"/>
    <path d="M85.893 17.1225C85.7161 16.626 85.348 16.2177 84.8684 15.9954L68.4722 8.4263C64.9845 7.24482 61.4313 6.31156 57.8435 5.62944C57.7172 5.6047 57.5915 5.59277 57.4675 5.59277C56.5794 5.59277 55.784 6.20592 55.5862 7.10513C54.2761 12.8729 49.1703 17.1911 42.9998 17.1911C36.8296 17.1911 31.7236 12.8732 30.4138 7.10513C30.2136 6.20592 29.4197 5.59277 28.5322 5.59277C28.4082 5.59277 28.2825 5.6047 28.1562 5.62944C24.5686 6.31156 21.0155 7.24482 17.5222 8.4263L1.13185 15.9951C0.649366 16.2174 0.278623 16.6257 0.110131 17.1222C-0.0641823 17.6244 -0.0327536 18.1666 0.212856 18.6403L7.33088 32.6878C7.66408 33.3545 8.34183 33.7546 9.05887 33.7546C9.24395 33.7546 9.43165 33.7279 9.61673 33.6723L17.5225 31.3291V78.4634C17.5225 79.5338 18.3958 80.4068 19.469 80.4068H66.5315C67.6018 80.4068 68.4725 79.5335 68.4725 78.4634V31.3297L76.3838 33.6729C76.5689 33.7285 76.7563 33.7552 76.9411 33.7552C77.6567 33.7552 78.3318 33.3551 78.6697 32.6884L85.7903 18.6409C86.0301 18.1669 86.0644 17.6247 85.893 17.1225Z" fill="black"/>
  </g>
  <defs>
    <clipPath id="clip0_1422_594">
      <rect width="86" height="86" fill="white"/>
    </clipPath>
  </defs>
</svg>