<svg width="1440" height="514" viewBox="0 0 1440 514" fill="none" xmlns="http://www.w3.org/2000/svg">
<path d="M14.7853 332.641L29.2393 331.987L22.0123 192.518L14.7853 332.641Z" fill="url(#paint0_linear_550_34)"/>
<path d="M30.7922 342.354L45.2461 341.57L38.0191 202.101L30.7922 342.354Z" fill="url(#paint1_linear_550_34)"/>
<path d="M40.7761 355.157L55.23 354.373L48.003 214.904L40.7761 355.157Z" fill="url(#paint2_linear_550_34)"/>
<path d="M54.8019 369.727L69.2559 368.942L62.0289 229.473L54.8019 369.727Z" fill="url(#paint3_linear_550_34)"/>
<path d="M72.3888 372.814L86.8428 372.03L79.6158 232.561L72.3888 372.814Z" fill="url(#paint4_linear_550_34)"/>
<path d="M36.7941 357.364L51.248 356.58L44.0211 217.111L36.7941 357.364Z" fill="url(#paint5_linear_550_34)"/>
<path d="M10.7863 332.666L25.2402 331.882L18.0133 192.413L10.7863 332.666Z" fill="url(#paint6_linear_550_34)"/>
<path d="M92.2966 459.771L8.83447 548.16L152.536 548.219L189.504 462.106L138.004 440.858L92.2966 459.771Z" fill="url(#paint7_linear_550_34)"/>
<path d="M1210.05 95.5928L1242.1 138.861L1173.29 184.394" fill="#2A2D3E"/>
<path d="M1235.75 126.411L1323.28 234.459L1386.01 242.064L1450.6 335.037L1450.66 309.85L1362.96 191.144L1315.21 112.06L1291.75 106.6L1258.11 52.1115L1235.75 126.411Z" fill="url(#paint8_linear_550_34)"/>
<path d="M1235.09 127.789L1257.3 186.811L1173.01 273.292L1258.39 216.49L1301.39 263.225L1450.38 414.223L1450.43 335.052L1386.24 241.903L1322.89 234.59L1235.49 126.21L1235.09 127.789Z" fill="url(#paint9_linear_550_34)"/>
<path d="M1310.75 314.086L1242 395.243L1310.81 341.97L1369.61 352.298L1450.51 439.38L1450.47 414.381L1301.33 263.146L1310.75 314.086Z" fill="url(#paint10_linear_550_34)"/>
<path d="M1342.44 395.274L1369.67 395.505L1450.72 473.863L1450.52 439.516L1369.81 352.85L1342.44 395.274Z" fill="url(#paint11_linear_550_34)"/>
<path d="M1385.45 445.874L1423.47 472.165L1450.56 500.801V473.672L1369.77 395.469L1385.45 445.874Z" fill="url(#paint12_linear_550_34)"/>
<path d="M1371.62 463.954L1402.12 472.01L1450.41 532.391L1450.41 500.597L1423.19 471.961L1385.33 445.731L1371.62 463.954Z" fill="url(#paint13_linear_550_34)"/>
<path d="M1362.96 191.184L1450.46 309.879L1450.44 256.267L1396.01 187.126L1362.96 191.184Z" fill="url(#paint14_linear_550_34)"/>
<path d="M1226.98 82.3427L1185.99 160.157L1210.13 95.6822L1144 153.44L1119.77 204.431L1047.37 279.865L1016.7 279.814L757.168 485.658L751.796 489.843L719.77 548.666L1450.6 548.632L1450.51 532.555L1402.3 471.943L1371.83 463.851L1385.46 446.125L1369.7 395.666L1342.47 395.591L1369.68 352.36L1310.98 342.126L1265.08 377.705L1242.13 395.494L1311.06 314.379L1301.43 263.1L1258.46 216.714L1173.43 273.304L1249.98 194.471L1257.3 187.16L1235.1 127.927L1258.19 52.05L1256.21 48.9517L1226.98 82.3427Z" fill="url(#paint15_linear_550_34)"/>
<path d="M1303.56 404.348L1311 426.789L1235.71 511.462L1299.4 523.492L1398.11 497.581L1450.64 549.865V532.514L1402.27 471.901L1371.85 464.035L1385.42 445.759L1369.66 395.325H1342.52L1369.66 352.526L1342.74 347.668L1303.56 404.348Z" fill="url(#paint16_linear_550_34)"/>
<path d="M1020.96 405.999L1083.01 416.7L1159.53 327.221L1177.47 327.219L1261.93 220.907L1258.27 216.607L1173.29 273.345L1249.72 194.567L1020.96 405.999Z" fill="url(#paint17_linear_550_34)"/>
<path d="M1226.75 82.3971L1185.8 160.12L1209.82 95.6857L1143.77 153.439L1119.5 204.404L1047.05 279.845L1016.68 279.738L756.918 485.584L746.821 530.411L783.546 511.719L920.929 441.194L1158.38 263.267L1247.39 160.739L1235.01 127.683L1258.12 51.928L1255.99 49.0214L1226.75 82.3971Z" fill="url(#paint18_linear_550_34)"/>
<path d="M1155.25 252.025L1193.06 172.96L776.086 509.821L858.311 526.465L1107.58 308.242L1129.29 313.619C1129.29 313.619 1148.94 295.548 1173.44 272.741L1257.45 186.726L1235.42 127.185L1235.58 126.912L1155.25 252.025Z" fill="url(#paint19_linear_550_34)"/>
<path d="M898.62 433.125L913.68 448.488L846.787 488.283" fill="#2A2D3E"/>
<path d="M1241.95 254.31L1219.51 335.935L1082.84 510.985L1143.83 510.891L1264.9 377.63L1241.93 395.319L1310.83 314.286L1301.29 263.375L1262.52 221.215L1241.95 254.31Z" fill="url(#paint20_linear_550_34)"/>
<path d="M1177.19 327.299L1159.42 327.149L1105.82 399.752L1215.22 320.72L1282.34 240.187L1262.38 221.447L1177.19 327.299Z" fill="url(#paint21_linear_550_34)"/>
<path d="M-3.17139 217.158L30.5848 230.895L142.091 320.949L152.605 345.981L248.34 421.382L268.815 403.066L162.566 340.791L152.605 316.675L103.354 264.779L99.7573 246.463L-3.17139 171.367V217.158Z" fill="url(#paint22_linear_550_34)"/>
<path d="M-2.87663 265.339L-2.81639 284.247L22.5642 264.672L239.939 428.984L248.622 421.297L152.825 346.05L142.253 320.698L30.9297 230.912L-2.87663 265.339Z" fill="url(#paint23_linear_550_34)"/>
<path d="M24.6099 294.954L60.2539 319.652L46.9961 330.922L92.4204 334.519L231.953 435.95L239.778 428.996L22.4365 264.741L24.6099 294.954Z" fill="url(#paint24_linear_550_34)"/>
<path d="M15.2373 388.292L97.8198 359.795L220.849 445.556L231.612 435.814L92.3521 334.343L15.2373 388.292Z" fill="url(#paint25_linear_550_34)"/>
<path d="M74.0586 388.68L90.195 406.807H117.627L207.844 457.141L220.753 445.65L97.8231 360.033L74.0586 388.68Z" fill="url(#paint26_linear_550_34)"/>
<path d="M65.2539 444.396L126.128 426.265L195.291 468.202L208.152 456.851L117.983 406.716L65.2539 444.396Z" fill="url(#paint27_linear_550_34)"/>
<path d="M181.614 480.538L195.239 468.482L126.077 426.514L181.614 480.538Z" fill="url(#paint28_linear_550_34)"/>
<path d="M103.478 264.853L152.839 316.738L162.891 340.898L269.153 403.279L279.564 393.972L159.481 314.956L151.044 283.666L100.067 246.435L103.478 264.853Z" fill="url(#paint29_linear_550_34)"/>
<path d="M488.806 249.252L509.603 230.667L611.147 317.011L639.842 307.874L607.527 294.34L505.241 202.346L488.806 249.252Z" fill="url(#paint30_linear_550_34)"/>
<path d="M497.231 258.833L511.213 260.856L712.909 401.959L726.432 396.902L635.898 304.35L607.248 313.453L505.712 226.971L497.231 258.833Z" fill="url(#paint31_linear_550_34)"/>
<path d="M467.797 297.131L457.5 326.604L397.619 373.862L469.902 340.589L483.274 315.119L518.07 296.618L618.423 366.467L642.806 366.568L698.573 407.448L713.675 402.095L512.07 261.156L467.797 297.131Z" fill="url(#paint32_linear_550_34)"/>
<path d="M528.685 317.02L686.683 431.332L714.029 429.32L820.07 506.422L819.462 504.411L821.589 497.371L805.181 484.968L738.032 435.354L728.006 397.139L727.094 396.133L713.421 401.161L698.229 406.86L642.626 365.628H618.319L517.747 295.901L528.685 317.02Z" fill="url(#paint33_linear_550_34)"/>
<path d="M517.122 339.81L538.388 360.873L551.248 357.494L818.408 548.189L834.733 548.235L825.706 521.864L820.508 506.425L714.189 429.099L686.981 431.223L529.063 317.145L517.122 339.81Z" fill="url(#paint34_linear_550_34)"/>
<path d="M421.815 401.155L515.365 360.919L532.807 380.162L558.969 365.73L672.338 452.323L675.906 475.94L786.104 548.101H818.212L551.041 357.421L538.356 360.919L516.951 339.927L421.815 401.155Z" fill="url(#paint35_linear_550_34)"/>
<path d="M457.47 410.91L512.401 381.886L521.91 385.728L532.747 379.781L515.469 360.578L457.47 410.91Z" fill="url(#paint36_linear_550_34)"/>
<path d="M532.746 403.703L547.09 424.97L514.353 447.286L566.385 440.879L638.228 497.108L646.581 515.696L702.166 547.951L785.919 547.988L675.794 475.757L672.393 451.811L558.929 365.413L532.746 403.703Z" fill="url(#paint37_linear_550_34)"/>
<path d="M550.288 466.268L566.719 491.392L643.068 548.265L702.479 548.33L646.969 516.006L638.427 497.385L566.539 441.169L550.288 466.268Z" fill="url(#paint38_linear_550_34)"/>
<path d="M519.019 548.101L642.792 548.145L566.583 491.275L519.019 548.101Z" fill="url(#paint39_linear_550_34)"/>
<path d="M437.821 494.665L407.808 548.102H518.968L566.609 491.336L550.252 466.107L566.609 441.053L514.522 447.535L535.801 433.169L437.821 494.665Z" fill="url(#paint40_linear_550_34)"/>
<path d="M521.982 385.706L512.425 381.91L462.532 408.272L390.657 465.427L367.909 548.101H407.67L437.682 494.531L535.555 432.948L547.215 425.145L532.879 403.843L559.067 365.459L521.982 385.706Z" fill="url(#paint41_linear_550_34)"/>
<path d="M483.309 314.163L469.671 339.599L408.301 367.901L356.996 410.891L296.924 484.69L204.057 548.101H279.065L469.671 400.501L515.456 360.736L421.939 401.218L516.755 339.599L528.769 317.029L517.729 295.892L483.309 314.163Z" fill="url(#paint42_linear_550_34)"/>
<path d="M264.339 429.62C282.919 427.434 307.444 424.154 308.931 424.7C310.913 424.974 410.748 351.725 461.533 314.28L467.974 296.241L512.07 260.163L498.197 257.977L505.133 232.285L264.339 429.62Z" fill="url(#paint43_linear_550_34)"/>
<path d="M335.069 345.72L311.94 365.637L76.7002 542.396H108.009L344.659 362.525L358.763 326.426L335.069 345.72Z" fill="url(#paint44_linear_550_34)"/>
<path d="M921.843 421.884L851.032 481.96L898.764 433.014L801.999 478.965L787.256 502.667C787.256 502.667 739.599 526.052 693.526 548.604L746.863 548.607L789.44 522.362L813.201 524.666L819.719 525.136L875.778 496.636L900.543 469.222L1088.52 360.157L1092.07 342.952L921.843 421.884Z" fill="url(#paint45_linear_550_34)"/>
<path d="M1091.87 342.867L1086.31 370.778L1079.66 379.208L1076.37 383.268L1081.78 395.24L1130.7 427.355L1188.54 438.512L1250.84 484.337L1263.38 501.015L1362.84 548.44L1423.23 548.484L1259.28 441.127L1234.08 442.502L1093.91 341.858L1091.87 342.867Z" fill="url(#paint46_linear_550_34)"/>
<path d="M1028.42 548.587L1154.88 548.587L1143.64 542.646L1141.16 524.241L1061.26 471.589C1061.07 472.259 1045.61 508.399 1028.42 548.587Z" fill="url(#paint47_linear_550_34)"/>
<path d="M1074.29 435.229L1005.14 519.565L1061.24 471.449L1141.09 524.064L1143.49 542.487L1154.89 548.451L1265.24 548.458L1227.16 531.461L1215.67 514.04L1077.99 430.699L1074.29 435.229Z" fill="url(#paint48_linear_550_34)"/>
<path d="M1083.07 397.711L1067.69 413.275L1078.14 430.975L1215.77 514.304L1227.34 531.763L1265.3 548.807L1363.24 548.728L1263.72 501.423L1251.12 484.736L1188.77 438.804L1130.96 427.689L1082 395.495L1083.07 397.711Z" fill="url(#paint49_linear_550_34)"/>
<path d="M1004.94 423.363L990.825 455.552L820.833 546.65L817.344 548.598L921.022 548.667L1074.04 435.373L1077.74 430.869L1067.21 413.084L1082.67 397.487L1076.39 383.623L1079.62 379.378L1004.94 423.363Z" fill="url(#paint50_linear_550_34)"/>
<path d="M921.026 548.613L1028.22 548.524C1045.4 508.413 1060.82 472.269 1061.05 471.511L1005.02 519.77L1074.16 435.253L921.026 548.613Z" fill="url(#paint51_linear_550_34)"/>
<path d="M900.519 468.966L875.788 496.508L819.796 525.157L789.44 522.216L746.973 548.613L817.652 548.48L821.25 546.468L991.268 455.399L1005.3 423.216L1080 379.243L1086.6 370.685L1088.53 360.315L900.519 468.966Z" fill="url(#paint52_linear_550_34)"/>
<path d="M279.175 548.101H368.033L390.724 465.632L462.612 408.41L457.654 410.934L469.858 400.415L279.175 548.101Z" fill="url(#paint53_linear_550_34)"/>
<path d="M308.895 424.486C307.027 424.074 282.746 426.959 264.068 429.432C252.488 431.08 242.776 432.317 242.776 432.317L87.7495 548.128H203.926L296.941 484.658L356.711 410.885L408.261 367.611L397.428 372.556L457.197 325.572L461.306 314.032C410.503 351.537 310.389 424.898 308.895 424.486Z" fill="url(#paint54_linear_550_34)"/>
<path d="M1050.14 288.419L1241.92 146.026L1241.78 126.26L1050.14 288.419Z" fill="url(#paint55_linear_550_34)"/>
<path d="M126.139 429.342L66.271 446.897L25.063 466.664L22.4917 508.81L-2.86511 533.126L-2.88613 548.253L18.5825 548.128C63.1112 517.452 121.071 477.243 152.67 455.091L126.139 429.342Z" fill="url(#paint56_linear_550_34)"/>
<path d="M38.5485 380.842L-2.83657 407.753L-2.90171 466.847L15.471 468.578L24.9858 464.079L66.1279 444.522L65.2649 444.748L118.009 407.074L90.4221 406.997L74.2215 388.86L98.1481 360.229L38.5485 380.842Z" fill="url(#paint57_linear_550_34)"/>
<path d="M-3.13695 311.932L-3.07113 407.571L38.3105 380.64L15.27 388.572L92.3394 334.575L46.8188 330.821L60.0727 319.914L24.3324 295.07L23.9584 289.849C16.4195 296.175 6.94527 303.763 -3.13695 311.932Z" fill="url(#paint58_linear_550_34)"/>
<path d="M-3.06327 231.776L-2.9554 265.431L30.7879 230.744L8.8373 221.969L-3.06327 231.776ZM-2.9652 284.286L-3.06607 311.776C7.09039 303.572 16.4525 295.904 24.0706 289.839L22.2746 264.835L-2.9652 284.286Z" fill="url(#paint59_linear_550_34)"/>
<path d="M-3.09571 231.738L8.89522 222.162L-3.2386 217.357L-3.09571 231.738Z" fill="url(#paint60_linear_550_34)"/>
<path d="M15.6068 468.265L-2.79248 466.573V530.01L22.5065 505.988L25.1131 463.697L15.6068 468.265Z" fill="url(#paint61_linear_550_34)"/>
<defs>
<linearGradient id="paint0_linear_550_34" x1="22.013" y1="386.886" x2="22.013" y2="256.174" gradientUnits="userSpaceOnUse">
<stop stop-color="#EBC420"/>
<stop offset="1" stop-color="#222432"/>
</linearGradient>
<linearGradient id="paint1_linear_550_34" x1="38.0197" y1="387.058" x2="38.0197" y2="256.346" gradientUnits="userSpaceOnUse">
<stop stop-color="#EBC420"/>
<stop offset="1" stop-color="#222432"/>
</linearGradient>
<linearGradient id="paint2_linear_550_34" x1="48.0035" y1="386.789" x2="48.0035" y2="256.078" gradientUnits="userSpaceOnUse">
<stop stop-color="#EBC420"/>
<stop offset="1" stop-color="#222432"/>
</linearGradient>
<linearGradient id="paint3_linear_550_34" x1="62.0288" y1="386.98" x2="62.0288" y2="256.269" gradientUnits="userSpaceOnUse">
<stop stop-color="#EBC420"/>
<stop offset="1" stop-color="#222432"/>
</linearGradient>
<linearGradient id="paint4_linear_550_34" x1="79.6161" y1="387.062" x2="79.6161" y2="256.351" gradientUnits="userSpaceOnUse">
<stop stop-color="#EBC420"/>
<stop offset="1" stop-color="#222432"/>
</linearGradient>
<linearGradient id="paint5_linear_550_34" x1="44.0212" y1="387.036" x2="44.0212" y2="256.324" gradientUnits="userSpaceOnUse">
<stop stop-color="#EBC420"/>
<stop offset="1" stop-color="#222432"/>
</linearGradient>
<linearGradient id="paint6_linear_550_34" x1="18.0127" y1="386.65" x2="18.0127" y2="255.938" gradientUnits="userSpaceOnUse">
<stop stop-color="#EBC420"/>
<stop offset="1" stop-color="#222432"/>
</linearGradient>
<linearGradient id="paint7_linear_550_34" x1="111.166" y1="514.696" x2="197.218" y2="571.052" gradientUnits="userSpaceOnUse">
<stop stop-color="#2A2D3E"/>
<stop offset="1" stop-color="#C36853"/>
</linearGradient>
<linearGradient id="paint8_linear_550_34" x1="1255.19" y1="54.2413" x2="1499.5" y2="389.162" gradientUnits="userSpaceOnUse">
<stop stop-color="#2A2D3E"/>
<stop offset="1" stop-color="#C36853"/>
</linearGradient>
<linearGradient id="paint9_linear_550_34" x1="1250.43" y1="230.487" x2="1522.37" y2="456.509" gradientUnits="userSpaceOnUse">
<stop stop-color="#2A2D3E"/>
<stop offset="1" stop-color="#C36853"/>
</linearGradient>
<linearGradient id="paint10_linear_550_34" x1="1304.9" y1="360.523" x2="1425.12" y2="473.795" gradientUnits="userSpaceOnUse">
<stop stop-color="#2A2D3E"/>
<stop offset="1" stop-color="#C36853"/>
</linearGradient>
<linearGradient id="paint11_linear_550_34" x1="1266.86" y1="263.789" x2="1598.84" y2="606.908" gradientUnits="userSpaceOnUse">
<stop stop-color="#2A2D3E"/>
<stop offset="1" stop-color="#C36853"/>
</linearGradient>
<linearGradient id="paint12_linear_550_34" x1="1369.77" y1="472.087" x2="1528.19" y2="472.087" gradientUnits="userSpaceOnUse">
<stop stop-color="#2A2D3E"/>
<stop offset="1" stop-color="#C36853"/>
</linearGradient>
<linearGradient id="paint13_linear_550_34" x1="1438.49" y1="506.907" x2="1541.14" y2="569.825" gradientUnits="userSpaceOnUse">
<stop stop-color="#2A2D3E"/>
<stop offset="1" stop-color="#C36853"/>
</linearGradient>
<linearGradient id="paint14_linear_550_34" x1="1488.09" y1="319.424" x2="1630.34" y2="507.404" gradientUnits="userSpaceOnUse">
<stop stop-color="#2A2D3E"/>
<stop offset="1" stop-color="#C36853"/>
</linearGradient>
<linearGradient id="paint15_linear_550_34" x1="1406.63" y1="199.214" x2="1149.2" y2="445.905" gradientUnits="userSpaceOnUse">
<stop stop-color="#FCE90F"/>
<stop offset="1" stop-color="#BE624D"/>
</linearGradient>
<linearGradient id="paint16_linear_550_34" x1="1235.71" y1="448.766" x2="1454.58" y2="448.766" gradientUnits="userSpaceOnUse">
<stop stop-color="#FCE90F"/>
<stop offset="1" stop-color="#BE624D"/>
</linearGradient>
<linearGradient id="paint17_linear_550_34" x1="1352.7" y1="171.091" x2="1044.01" y2="370.579" gradientUnits="userSpaceOnUse">
<stop stop-color="#FCE90F"/>
<stop offset="1" stop-color="#BE624D"/>
</linearGradient>
<linearGradient id="paint18_linear_550_34" x1="1124.8" y1="239.582" x2="809.726" y2="354.158" gradientUnits="userSpaceOnUse">
<stop stop-color="#FCE90F"/>
<stop offset="1" stop-color="#BE624D"/>
</linearGradient>
<linearGradient id="paint19_linear_550_34" x1="1130.71" y1="150.759" x2="960.056" y2="415.53" gradientUnits="userSpaceOnUse">
<stop stop-color="#FCE90F"/>
<stop offset="1" stop-color="#BE624D"/>
</linearGradient>
<linearGradient id="paint20_linear_550_34" x1="1281.6" y1="277.819" x2="1125.04" y2="447.013" gradientUnits="userSpaceOnUse">
<stop stop-color="#FCE90F"/>
<stop offset="1" stop-color="#BE624D"/>
</linearGradient>
<linearGradient id="paint21_linear_550_34" x1="1280.03" y1="222.908" x2="1136.75" y2="362.662" gradientUnits="userSpaceOnUse">
<stop stop-color="#2A2D3E"/>
<stop offset="1" stop-color="#C36853"/>
</linearGradient>
<linearGradient id="paint22_linear_550_34" x1="-7.87512" y1="294.603" x2="268.815" y2="294.603" gradientUnits="userSpaceOnUse">
<stop stop-color="#2A2D3E"/>
<stop offset="1" stop-color="#C36853"/>
</linearGradient>
<linearGradient id="paint23_linear_550_34" x1="39.7252" y1="316.972" x2="199.234" y2="497.157" gradientUnits="userSpaceOnUse">
<stop stop-color="#2A2D3E"/>
<stop offset="1" stop-color="#C36853"/>
</linearGradient>
<linearGradient id="paint24_linear_550_34" x1="22.4365" y1="350.345" x2="239.778" y2="350.345" gradientUnits="userSpaceOnUse">
<stop stop-color="#2A2D3E"/>
<stop offset="1" stop-color="#C36853"/>
</linearGradient>
<linearGradient id="paint25_linear_550_34" x1="128.752" y1="416.724" x2="304.822" y2="543.576" gradientUnits="userSpaceOnUse">
<stop stop-color="#2A2D3E"/>
<stop offset="1" stop-color="#C36853"/>
</linearGradient>
<linearGradient id="paint26_linear_550_34" x1="74.0586" y1="408.587" x2="220.753" y2="408.587" gradientUnits="userSpaceOnUse">
<stop stop-color="#2A2D3E"/>
<stop offset="1" stop-color="#C36853"/>
</linearGradient>
<linearGradient id="paint27_linear_550_34" x1="65.2539" y1="437.459" x2="208.152" y2="437.459" gradientUnits="userSpaceOnUse">
<stop stop-color="#2A2D3E"/>
<stop offset="1" stop-color="#C36853"/>
</linearGradient>
<linearGradient id="paint28_linear_550_34" x1="126.077" y1="453.526" x2="195.239" y2="453.526" gradientUnits="userSpaceOnUse">
<stop stop-color="#2A2D3E"/>
<stop offset="1" stop-color="#C36853"/>
</linearGradient>
<linearGradient id="paint29_linear_550_34" x1="100.067" y1="324.858" x2="279.564" y2="324.858" gradientUnits="userSpaceOnUse">
<stop stop-color="#2A2D3E"/>
<stop offset="1" stop-color="#C36853"/>
</linearGradient>
<linearGradient id="paint30_linear_550_34" x1="514.771" y1="233.902" x2="552.645" y2="261.945" gradientUnits="userSpaceOnUse">
<stop stop-color="#2A2D3E"/>
<stop offset="1" stop-color="#C36853"/>
</linearGradient>
<linearGradient id="paint31_linear_550_34" x1="497.231" y1="314.465" x2="726.432" y2="314.465" gradientUnits="userSpaceOnUse">
<stop stop-color="#2A2D3E"/>
<stop offset="1" stop-color="#C36853"/>
</linearGradient>
<linearGradient id="paint32_linear_550_34" x1="520.99" y1="363.132" x2="722.624" y2="481.889" gradientUnits="userSpaceOnUse">
<stop stop-color="#2A2D3E"/>
<stop offset="1" stop-color="#C36853"/>
</linearGradient>
<linearGradient id="paint33_linear_550_34" x1="517.747" y1="401.161" x2="821.589" y2="401.161" gradientUnits="userSpaceOnUse">
<stop stop-color="#2A2D3E"/>
<stop offset="1" stop-color="#C36853"/>
</linearGradient>
<linearGradient id="paint34_linear_550_34" x1="634.064" y1="386.207" x2="764.921" y2="500.393" gradientUnits="userSpaceOnUse">
<stop stop-color="#2A2D3E"/>
<stop offset="1" stop-color="#C36853"/>
</linearGradient>
<linearGradient id="paint35_linear_550_34" x1="421.815" y1="444.014" x2="818.212" y2="444.014" gradientUnits="userSpaceOnUse">
<stop stop-color="#2A2D3E"/>
<stop offset="1" stop-color="#C36853"/>
</linearGradient>
<linearGradient id="paint36_linear_550_34" x1="534.208" y1="421.872" x2="629.555" y2="481.153" gradientUnits="userSpaceOnUse">
<stop stop-color="#2A2D3E"/>
<stop offset="1" stop-color="#C36853"/>
</linearGradient>
<linearGradient id="paint37_linear_550_34" x1="617.269" y1="468.77" x2="740.038" y2="549.893" gradientUnits="userSpaceOnUse">
<stop stop-color="#2A2D3E"/>
<stop offset="1" stop-color="#C36853"/>
</linearGradient>
<linearGradient id="paint38_linear_550_34" x1="499.194" y1="415.784" x2="695.235" y2="536.384" gradientUnits="userSpaceOnUse">
<stop stop-color="#2A2D3E"/>
<stop offset="1" stop-color="#C36853"/>
</linearGradient>
<linearGradient id="paint39_linear_550_34" x1="579.835" y1="547.131" x2="684.923" y2="627.112" gradientUnits="userSpaceOnUse">
<stop stop-color="#2A2D3E"/>
<stop offset="1" stop-color="#C36853"/>
</linearGradient>
<linearGradient id="paint40_linear_550_34" x1="407.808" y1="490.635" x2="566.609" y2="490.635" gradientUnits="userSpaceOnUse">
<stop stop-color="#FCE90F"/>
<stop offset="1" stop-color="#BE624D"/>
</linearGradient>
<linearGradient id="paint41_linear_550_34" x1="367.909" y1="456.78" x2="559.067" y2="456.78" gradientUnits="userSpaceOnUse">
<stop stop-color="#FCE90F"/>
<stop offset="1" stop-color="#BE624D"/>
</linearGradient>
<linearGradient id="paint42_linear_550_34" x1="204.057" y1="421.997" x2="528.769" y2="421.997" gradientUnits="userSpaceOnUse">
<stop stop-color="#FCE90F"/>
<stop offset="1" stop-color="#BE624D"/>
</linearGradient>
<linearGradient id="paint43_linear_550_34" x1="264.339" y1="330.952" x2="512.07" y2="330.952" gradientUnits="userSpaceOnUse">
<stop stop-color="#FCE90F"/>
<stop offset="1" stop-color="#BE624D"/>
</linearGradient>
<linearGradient id="paint44_linear_550_34" x1="76.7002" y1="434.411" x2="358.763" y2="434.411" gradientUnits="userSpaceOnUse">
<stop stop-color="#FCE90F"/>
<stop offset="1" stop-color="#BE624D"/>
</linearGradient>
<linearGradient id="paint45_linear_550_34" x1="944.33" y1="348.626" x2="839.062" y2="535.537" gradientUnits="userSpaceOnUse">
<stop stop-color="#FCE90F"/>
<stop offset="1" stop-color="#BE624D"/>
</linearGradient>
<linearGradient id="paint46_linear_550_34" x1="1230.45" y1="361.048" x2="1259.54" y2="502.101" gradientUnits="userSpaceOnUse">
<stop stop-color="#2A2D3E"/>
<stop offset="1" stop-color="#C36853"/>
</linearGradient>
<linearGradient id="paint47_linear_550_34" x1="1066.47" y1="523.804" x2="1208.16" y2="604.233" gradientUnits="userSpaceOnUse">
<stop stop-color="#2A2D3E"/>
<stop offset="1" stop-color="#C36853"/>
</linearGradient>
<linearGradient id="paint48_linear_550_34" x1="1127.57" y1="543.349" x2="1196.63" y2="467.672" gradientUnits="userSpaceOnUse">
<stop stop-color="#2A2D3E"/>
<stop offset="1" stop-color="#C36853"/>
</linearGradient>
<linearGradient id="paint49_linear_550_34" x1="1191.43" y1="486.825" x2="1306.44" y2="438.267" gradientUnits="userSpaceOnUse">
<stop stop-color="#2A2D3E"/>
<stop offset="1" stop-color="#C36853"/>
</linearGradient>
<linearGradient id="paint50_linear_550_34" x1="1020.02" y1="538.306" x2="891.518" y2="418.828" gradientUnits="userSpaceOnUse">
<stop stop-color="#FCE90F"/>
<stop offset="1" stop-color="#BE624D"/>
</linearGradient>
<linearGradient id="paint51_linear_550_34" x1="1034.19" y1="513.591" x2="902.001" y2="443.584" gradientUnits="userSpaceOnUse">
<stop stop-color="#FCE90F"/>
<stop offset="1" stop-color="#BE624D"/>
</linearGradient>
<linearGradient id="paint52_linear_550_34" x1="1104.94" y1="368.841" x2="770.146" y2="536.363" gradientUnits="userSpaceOnUse">
<stop stop-color="#FCE90F"/>
<stop offset="1" stop-color="#BE624D"/>
</linearGradient>
<linearGradient id="paint53_linear_550_34" x1="279.175" y1="474.259" x2="469.858" y2="474.259" gradientUnits="userSpaceOnUse">
<stop stop-color="#FCE90F"/>
<stop offset="1" stop-color="#BE624D"/>
</linearGradient>
<linearGradient id="paint54_linear_550_34" x1="87.7495" y1="431.081" x2="461.306" y2="431.081" gradientUnits="userSpaceOnUse">
<stop stop-color="#FCE90F"/>
<stop offset="1" stop-color="#BE624D"/>
</linearGradient>
<linearGradient id="paint55_linear_550_34" x1="1242.88" y1="111.685" x2="1091.98" y2="258.863" gradientUnits="userSpaceOnUse">
<stop stop-color="#2A2D3E"/>
<stop offset="1" stop-color="#C36853"/>
</linearGradient>
<linearGradient id="paint56_linear_550_34" x1="121.548" y1="449.979" x2="-144.997" y2="576.055" gradientUnits="userSpaceOnUse">
<stop stop-color="#FCE90F"/>
<stop offset="1" stop-color="#BE624D"/>
</linearGradient>
<linearGradient id="paint57_linear_550_34" x1="-104.155" y1="469.633" x2="113.65" y2="422.843" gradientUnits="userSpaceOnUse">
<stop stop-color="#FCE90F"/>
<stop offset="1" stop-color="#BE624D"/>
</linearGradient>
<linearGradient id="paint58_linear_550_34" x1="61.2564" y1="287.876" x2="-103.335" y2="417.122" gradientUnits="userSpaceOnUse">
<stop stop-color="#FCE90F"/>
<stop offset="1" stop-color="#BE624D"/>
</linearGradient>
<linearGradient id="paint59_linear_550_34" x1="39.7621" y1="196.803" x2="-134.348" y2="357.407" gradientUnits="userSpaceOnUse">
<stop stop-color="#FCE90F"/>
<stop offset="1" stop-color="#BE624D"/>
</linearGradient>
<linearGradient id="paint60_linear_550_34" x1="4.71355" y1="176.25" x2="-180.869" y2="339.593" gradientUnits="userSpaceOnUse">
<stop stop-color="#FCE90F"/>
<stop offset="1" stop-color="#BE624D"/>
</linearGradient>
<linearGradient id="paint61_linear_550_34" x1="-128.214" y1="504.511" x2="25.1131" y2="504.511" gradientUnits="userSpaceOnUse">
<stop stop-color="#FCE90F"/>
<stop offset="1" stop-color="#BE624D"/>
</linearGradient>
</defs>
</svg>
