<svg width="973" height="1234" viewBox="0 0 973 1234" fill="none" xmlns="http://www.w3.org/2000/svg">
<path d="M700.952 192.39C736.755 113.983 462.827 57.5381 266.451 0.512451C265.27 0.169561 264.064 0 262.834 0H134.848C120.593 0 116.503 19.8384 129.636 25.3825C233.63 69.283 437.855 157.987 474.061 192.39C523.031 238.92 18.2075 452.294 0.252096 563.047C-16.3119 665.219 895.795 1149.88 1037.26 1224.38C1045.89 1228.93 1055.58 1222.31 1055.58 1212.55V680.347C1055.58 680.347 435.179 547.916 426.225 506.957C417.271 465.998 665.041 271.032 700.952 192.39Z" fill="#231411"/>
<path d="M560.364 706.856L551.135 708.392L560.373 713.966L606.576 703.069L602.865 699.866L598.481 697.461L594.164 698.951L557.777 702.646L551.941 702.135L551.613 703.021L557.156 706.365L560.364 706.856Z" fill="#932B51" stroke="#932B51" stroke-width="0.5"/>
<path d="M649.005 777.803L646.738 778.844L611.777 746.067L553.092 709.211L556.031 707.372L560.414 709.776L577.663 702.843L581.652 702.239L613.388 720.305L616.059 742.63L647.653 772.291L649.005 777.803Z" fill="#AB2E5C" stroke="#AB2262"/>
<path d="M613.493 720.01L616.4 742.718L652.946 728.401L641.709 712.95L613.493 720.01Z" fill="#AE3360" stroke="#AE3360"/>
<path d="M647.524 771.614L616.981 743.188L653.183 728.785L679.93 749.139L647.524 771.614Z" fill="#9E2F58" stroke="#9E2F58"/>
<path d="M573.153 741.549C571.909 744.918 571.448 746.177 567.123 745.08C562.798 743.983 559.146 738.69 560.391 735.322C561.635 731.954 562.792 730.411 567.117 731.508C571.442 732.605 574.398 738.181 573.153 741.549Z" fill="#754A33"/>
<path d="M576.908 743.614L570.859 745.383L564.099 731.4L570.688 730.477L577.282 735.688L576.908 743.614Z" fill="#754A33" stroke="#754A33" stroke-width="0.1"/>
<path d="M619.089 776.216C617.65 780.111 616.773 780.937 611.29 779.546C605.808 778.156 600.565 771.315 602.004 767.42C603.444 763.525 604.84 761.755 610.322 763.146C615.805 764.536 620.529 772.321 619.089 776.216Z" fill="#754A33"/>
<path d="M623.979 775.211L618.15 778.702L606.807 762.573L612.415 760.446L620.973 762.617L623.979 775.211Z" fill="#754A33" stroke="#754A33" stroke-width="0.1"/>
<path d="M603.52 764.33L576.773 743.975L575.723 742.74C575.723 742.74 576.5 739.04 575.622 736.899C574.723 734.707 573.425 733.704 571.314 732.252C569.969 731.326 567.509 730.318 567.509 730.318L563.411 731.217L561.832 732.432L549.899 722.943L550.21 721.083L549.857 713.885L550.436 714.356L550.965 711.905L549.697 711.26L550.335 708.514L552.527 709.716L612.933 747.009L646.862 779.523L641.303 788.452L635.701 788.324L621.232 777.546L621.559 776.66C621.559 776.66 619.359 768.347 616.57 765.701C613.782 763.056 610.087 760.826 606.568 762.195C603.05 763.564 603.52 764.33 603.52 764.33Z" fill="#B63464" stroke="#B63464"/>
<path d="M682.282 752.967L647.315 779.316L641.647 788.54L677.487 759.828L682.282 752.967Z" fill="#9E2F58" stroke="#9E2F58"/>
<path d="M649.218 777.213L647.757 771.996L680.163 749.521L682.279 752.966L649.218 777.213Z" fill="#AE3360" stroke="#AE3360"/>
<path d="M641.823 712.654L613.498 720.009L581.762 701.943L612.33 698.711L641.823 712.654Z" fill="#9E2F58"/>
<path d="M564.304 709.854L578.12 704.559C578.425 704.442 578.758 704.461 579.021 704.611L600.069 716.603L610.819 721.816C611.089 721.946 611.269 722.192 611.309 722.482L613.573 739.244C613.685 740.073 612.676 740.715 611.947 740.279L592.276 728.52L564.014 711.58C563.332 711.171 563.501 710.162 564.304 709.854Z" fill="#A22E58"/>
<path d="M600.069 716.603L579.021 704.611C578.758 704.461 578.425 704.442 578.12 704.559L564.304 709.854C563.501 710.162 563.332 711.171 564.014 711.58L592.276 728.52M600.069 716.603L592.276 728.52M600.069 716.603L610.819 721.816C611.089 721.946 611.269 722.192 611.309 722.482L613.573 739.244C613.685 740.073 612.676 740.715 611.947 740.279L592.276 728.52" stroke="#932B51" stroke-width="0.5"/>
<path d="M647.765 783.648L649.45 776.88C649.481 776.754 649.563 776.641 649.677 776.564L657.118 771.577C657.503 771.319 657.989 771.598 657.895 772.023L656.686 777.477C656.66 777.592 656.592 777.699 656.494 777.777L648.577 784.078C648.192 784.384 647.653 784.098 647.765 783.648Z" stroke="#7E6232"/>
<path d="M647.765 783.648L649.45 776.88C649.481 776.754 649.563 776.641 649.677 776.564L657.118 771.577C657.503 771.319 657.989 771.598 657.895 772.023L656.686 777.477C656.66 777.592 656.592 777.699 656.494 777.777L648.577 784.078C648.192 784.384 647.653 784.098 647.765 783.648Z" fill="#FEB943"/>
<path d="M674.08 759.218L678.11 756.24C678.521 755.936 679.058 756.277 678.889 756.734L677.494 760.511C677.462 760.598 677.405 760.677 677.33 760.739L673.616 763.818C673.228 764.14 672.67 763.843 672.798 763.382L673.878 759.505C673.909 759.393 673.981 759.291 674.08 759.218Z" stroke="#7E6232"/>
<path d="M674.08 759.218L678.11 756.24C678.521 755.936 679.058 756.277 678.889 756.734L677.494 760.511C677.462 760.598 677.405 760.677 677.33 760.739L673.616 763.818C673.228 764.14 672.67 763.843 672.798 763.382L673.878 759.505C673.909 759.393 673.981 759.291 674.08 759.218Z" fill="#FEB943"/>
<path d="M770.586 594H1048.33C1043.73 589.788 1018.34 585.193 1014.01 585.576C1009.69 585.959 1006.18 584.045 1004.56 576.387C1002.94 568.728 996.182 571.792 995.912 570.26C995.642 568.728 994.291 564.134 989.158 564.517C984.024 564.899 984.565 562.602 982.944 557.241C974.568 538.862 948.902 557.241 946.47 555.327C944.039 553.412 935.393 557.241 930.8 557.241C926.207 557.241 908.916 574.472 898.379 571.792C887.842 569.111 876.765 579.833 863.256 585.193C852.449 589.482 796.973 592.851 770.586 594Z" fill="#D7C9A5" fill-opacity="0.3"/>
</svg>
