<?xml version="1.0" encoding="UTF-8"?>
<svg fill="none" version="1.1" viewBox="0 0 1440 550" xmlns="http://www.w3.org/2000/svg">
<path d="m0 132.48c885.27 141.47 1344.9 14.576 1484-132.48 151 345.35-970.87 510.36-1550.7 549.69z" fill="#231411"/>
<path d="m514.19 328.15 9.545 9.817-15.724-1.444-45.004-52.93 7.154-0.555 7.253 0.97 3.795 5.501 39.683 35.923 7.322 4.461-0.383 1.328-9.434-0.866z" fill="#932b51" stroke="#932b51" stroke-width=".5"/>
<path d="m348.16 334.87 1.77 3.193 69.643-8.301 101.14 7.473-1.869-4.718-7.252-0.969-14.315-23.137-4.178-4.172-53.079-6.24-22.517 23.996-62.971 7.55z" fill="#ab2e5c" stroke="#ab2262"/>
<path d="m440.16 297.56-23.126 24.243-30.655-48.581 26.649-8.462z" fill="#ae3360" stroke="#ae3360"/>
<path d="m355.27 328.86 60.661-7.005-30.173-48.385-49.185 0.786z" fill="#9e2f58" stroke="#9e2f58"/>
<path d="m469.01 357.94c-1.455 5.05-2.004 6.934 4.045 9.393 6.05 2.459 14.945-0.611 16.4-5.66 1.455-5.05 1.431-7.872-4.618-10.331-6.05-2.459-14.371 1.549-15.827 6.598z" fill="#754a33"/>
<path d="m462.8 357.12 5.595 7.333 20.099-10.615-6.965-6.805-12.292 0.421z" fill="#754a33" stroke="#754a33" stroke-width=".1"/>
<path d="m384.8 358.95c-1.683 5.84-1.365 7.574 6.303 10.691 7.669 3.118 19.783-0.397 21.466-6.236 1.683-5.84 1.572-9.137-6.096-12.254-7.669-3.118-19.99 1.96-21.673 7.799z" fill="#754a33"/>
<path d="m379.91 353.53 3.841 9.171 27.363-9.169-4.765-7.373-11.971-4.866z" fill="#754a33" stroke="#754a33" stroke-width=".1"/>
<path d="m413.46 358.45 49.185-0.786 2.31-0.545s2.294-5.036 5.187-6.798c2.96-1.803 5.36-1.859 9.109-1.739 2.388 0.076 6.162 1.021 6.162 1.021l4.05 4.615 0.807 2.802 22.297-0.831 1.248-2.462 6.66-8.177-1.091 0.051 1.503-3.347 2.054 0.34 1.63-3.79-3.626-0.485-103.55-8.452-68.198 8.889-1.195 15.347 6.713 4.708 26.406-0.15 0.383-1.329s9.805-7.888 15.387-8.588c5.582-0.699 11.871-0.122 14.831 4.545 2.959 4.666 1.74 5.161 1.74 5.161z" fill="#b63464" stroke="#b63464"/>
<path d="m330.48 276.72 18.355 61.393-1.322 15.79-17.334-64.936z" fill="#9e2f58" stroke="#9e2f58"/>
<path d="m348.42 333.99 6.249-4.882-18.697-54.604-5.483 2.224z" fill="#ae3360" stroke="#ae3360"/>
<path d="m413.15 264.31 27.004 33.243 53.079 6.24-33.225-30.329z" fill="#9e2f58"/>
<path d="m507.46 329.07-12.338-19.238c-0.176-0.275-0.456-0.457-0.757-0.492l-35.433-4.153-17.409-3.222c-0.295-0.055-0.586 0.036-0.79 0.247l-18.069 18.68c-0.582 0.601-0.151 1.716 0.695 1.797l34.42 3.305 48.892 4.637c0.791 0.075 1.253-0.838 0.789-1.561z" fill="#a22e58"/>
<path d="m458.93 305.19 35.433 4.153c0.301 0.035 0.581 0.217 0.757 0.492l12.338 19.238c0.464 0.723 2e-3 1.636-0.789 1.561l-48.892-4.637m1.153-20.807-1.153 20.807m1.153-20.807-17.409-3.222c-0.295-0.055-0.586 0.036-0.79 0.247l-18.069 18.68c-0.582 0.601-0.151 1.716 0.695 1.797l34.42 3.305" stroke="#932b51" stroke-width=".5"/>
<path d="m344.31 343.42 4.165-10.118c0.049-0.12 0.051-0.259 4e-3 -0.389l-4.671-12.967c-0.157-0.436-0.714-0.5-0.89-0.102l-3.559 8.048c-0.048 0.109-0.056 0.235-0.023 0.356l4.065 15.037c0.129 0.475 0.733 0.565 0.909 0.135z" stroke="#7e6232"/>
<path d="m344.31 343.42 4.165-10.118c0.049-0.12 0.051-0.259 4e-3 -0.389l-4.671-12.967c-0.157-0.436-0.714-0.5-0.89-0.102l-3.559 8.048c-0.048 0.109-0.056 0.235-0.023 0.356l4.065 15.037c0.129 0.475 0.733 0.565 0.909 0.135z" fill="#feb943"/>
<path d="m334.75 291.29-2.417-7.819c-0.151-0.488-0.786-0.533-0.921-0.064l-1.852 6.424c-0.025 0.089-0.027 0.187-3e-3 0.281l1.901 7.631c0.122 0.49 0.747 0.581 0.917 0.134l2.368-6.236c0.041-0.109 0.044-0.233 7e-3 -0.351z" stroke="#7e6232"/>
<path d="m334.75 291.29-2.417-7.819c-0.151-0.488-0.786-0.533-0.921-0.064l-1.852 6.424c-0.025 0.089-0.027 0.187-3e-3 0.281l1.901 7.631c0.122 0.49 0.747 0.581 0.917 0.134l2.368-6.236c0.041-0.109 0.044-0.233 7e-3 -0.351z" fill="#feb943"/>
</svg>
